<?xml version="1.0" encoding="utf-8" standalone="no"?>
<!DOCTYPE svg PUBLIC "-//W3C//DTD SVG 1.1//EN"
  "http://www.w3.org/Graphics/SVG/1.1/DTD/svg11.dtd">
<svg xmlns:xlink="http://www.w3.org/1999/xlink" width="708.59625pt" height="275.307982pt" viewBox="0 0 708.59625 275.307982" xmlns="http://www.w3.org/2000/svg" version="1.1">
 <metadata>
  <rdf:RDF xmlns:dc="http://purl.org/dc/elements/1.1/" xmlns:cc="http://creativecommons.org/ns#" xmlns:rdf="http://www.w3.org/1999/02/22-rdf-syntax-ns#">
   <cc:Work>
    <dc:type rdf:resource="http://purl.org/dc/dcmitype/StillImage"/>
    <dc:date>2025-07-02T11:48:26.191441</dc:date>
    <dc:format>image/svg+xml</dc:format>
    <dc:creator>
     <cc:Agent>
      <dc:title>Matplotlib v3.10.3, https://matplotlib.org/</dc:title>
     </cc:Agent>
    </dc:creator>
   </cc:Work>
  </rdf:RDF>
 </metadata>
 <defs>
  <style type="text/css">*{stroke-linejoin: round; stroke-linecap: butt}</style>
 </defs>
 <g id="figure_1">
  <g id="patch_1">
   <path d="M 0 275.307982 
L 708.59625 275.307982 
L 708.59625 0 
L 0 0 
z
" style="fill: #ffffff"/>
  </g>
  <g id="axes_1">
   <g id="patch_2">
    <path d="M 37.69625 150.503508 
L 701.39625 150.503508 
L 701.39625 22.318125 
L 37.69625 22.318125 
z
" style="fill: #ffffff"/>
   </g>
   <g id="matplotlib.axis_1">
    <g id="xtick_1">
     <g id="line2d_1">
      <path d="M 84.171557 150.503508 
L 84.171557 22.318125 
" clip-path="url(#pa65ee19d24)" style="fill: none; stroke: #cccccc; stroke-linecap: round"/>
     </g>
     <g id="text_1">
      <!-- user user user -->
      <g style="fill: #262626" transform="translate(27.614505 220.85314) rotate(-45) scale(0.11 -0.11)">
       <defs>
        <path id="DejaVuSans-75" d="M 544 1381 
L 544 3500 
L 1119 3500 
L 1119 1403 
Q 1119 906 1312 657 
Q 1506 409 1894 409 
Q 2359 409 2629 706 
Q 2900 1003 2900 1516 
L 2900 3500 
L 3475 3500 
L 3475 0 
L 2900 0 
L 2900 538 
Q 2691 219 2414 64 
Q 2138 -91 1772 -91 
Q 1169 -91 856 284 
Q 544 659 544 1381 
z
M 1991 3584 
L 1991 3584 
z
" transform="scale(0.015625)"/>
        <path id="DejaVuSans-73" d="M 2834 3397 
L 2834 2853 
Q 2591 2978 2328 3040 
Q 2066 3103 1784 3103 
Q 1356 3103 1142 2972 
Q 928 2841 928 2578 
Q 928 2378 1081 2264 
Q 1234 2150 1697 2047 
L 1894 2003 
Q 2506 1872 2764 1633 
Q 3022 1394 3022 966 
Q 3022 478 2636 193 
Q 2250 -91 1575 -91 
Q 1294 -91 989 -36 
Q 684 19 347 128 
L 347 722 
Q 666 556 975 473 
Q 1284 391 1588 391 
Q 1994 391 2212 530 
Q 2431 669 2431 922 
Q 2431 1156 2273 1281 
Q 2116 1406 1581 1522 
L 1381 1569 
Q 847 1681 609 1914 
Q 372 2147 372 2553 
Q 372 3047 722 3315 
Q 1072 3584 1716 3584 
Q 2034 3584 2315 3537 
Q 2597 3491 2834 3397 
z
" transform="scale(0.015625)"/>
        <path id="DejaVuSans-65" d="M 3597 1894 
L 3597 1613 
L 953 1613 
Q 991 1019 1311 708 
Q 1631 397 2203 397 
Q 2534 397 2845 478 
Q 3156 559 3463 722 
L 3463 178 
Q 3153 47 2828 -22 
Q 2503 -91 2169 -91 
Q 1331 -91 842 396 
Q 353 884 353 1716 
Q 353 2575 817 3079 
Q 1281 3584 2069 3584 
Q 2775 3584 3186 3129 
Q 3597 2675 3597 1894 
z
M 3022 2063 
Q 3016 2534 2758 2815 
Q 2500 3097 2075 3097 
Q 1594 3097 1305 2825 
Q 1016 2553 972 2059 
L 3022 2063 
z
" transform="scale(0.015625)"/>
        <path id="DejaVuSans-72" d="M 2631 2963 
Q 2534 3019 2420 3045 
Q 2306 3072 2169 3072 
Q 1681 3072 1420 2755 
Q 1159 2438 1159 1844 
L 1159 0 
L 581 0 
L 581 3500 
L 1159 3500 
L 1159 2956 
Q 1341 3275 1631 3429 
Q 1922 3584 2338 3584 
Q 2397 3584 2469 3576 
Q 2541 3569 2628 3553 
L 2631 2963 
z
" transform="scale(0.015625)"/>
        <path id="NotoSansEthiopic-Regular-20" transform="scale(0.015625)"/>
       </defs>
       <use xlink:href="#DejaVuSans-75"/>
       <use xlink:href="#DejaVuSans-73" transform="translate(63.378906 0)"/>
       <use xlink:href="#DejaVuSans-65" transform="translate(115.478516 0)"/>
       <use xlink:href="#DejaVuSans-72" transform="translate(177.001953 0)"/>
       <use xlink:href="#NotoSansEthiopic-Regular-20" transform="translate(218.115234 0)"/>
       <use xlink:href="#DejaVuSans-75" transform="translate(244.115219 0)"/>
       <use xlink:href="#DejaVuSans-73" transform="translate(307.494125 0)"/>
       <use xlink:href="#DejaVuSans-65" transform="translate(359.593735 0)"/>
       <use xlink:href="#DejaVuSans-72" transform="translate(421.117172 0)"/>
       <use xlink:href="#NotoSansEthiopic-Regular-20" transform="translate(462.230453 0)"/>
       <use xlink:href="#DejaVuSans-75" transform="translate(488.230438 0)"/>
       <use xlink:href="#DejaVuSans-73" transform="translate(551.609344 0)"/>
       <use xlink:href="#DejaVuSans-65" transform="translate(603.708954 0)"/>
       <use xlink:href="#DejaVuSans-72" transform="translate(665.232391 0)"/>
      </g>
     </g>
    </g>
    <g id="xtick_2">
     <g id="line2d_2">
      <path d="M 124.93937 150.503508 
L 124.93937 22.318125 
" clip-path="url(#pa65ee19d24)" style="fill: none; stroke: #cccccc; stroke-linecap: round"/>
     </g>
     <g id="text_2">
      <!-- እንኳን ደህና መጣህ -->
      <g style="fill: #262626" transform="translate(67.250837 221.984622) rotate(-45) scale(0.11 -0.11)">
       <defs>
        <path id="NotoSansEthiopic-Regular-12a5" d="M 352 0 
L 1459 2688 
L 819 2688 
L 1120 3392 
Q 787 3462 608 3699 
Q 429 3936 429 4442 
L 429 4570 
L 1011 4570 
L 1011 4461 
Q 1011 4166 1094 4028 
Q 1178 3891 1328 3852 
Q 1478 3814 1677 3814 
L 1920 3814 
L 1632 3149 
L 2266 3149 
L 1990 2464 
Q 2349 2336 2640 2054 
Q 2931 1773 3123 1273 
Q 3315 774 3379 0 
L 2797 0 
Q 2765 589 2617 973 
Q 2470 1357 2252 1590 
Q 2035 1824 1779 1952 
L 998 0 
L 352 0 
z
" transform="scale(0.015625)"/>
        <path id="NotoSansEthiopic-Regular-1295" d="M 979 0 
L 2144 2579 
L 1485 2579 
L 1485 3379 
Q 1485 3795 1321 3948 
Q 1158 4102 883 4102 
L 787 4102 
Q 710 3853 563 3715 
Q 416 3578 211 3578 
L 96 3578 
L 314 4570 
L 947 4570 
Q 1530 4570 1798 4275 
Q 2067 3981 2067 3398 
L 2067 3078 
L 2970 3078 
L 1619 0 
L 979 0 
z
" transform="scale(0.015625)"/>
        <path id="NotoSansEthiopic-Regular-12b3" d="M 1030 346 
L 1248 1338 
L 2931 1338 
L 2931 2266 
Q 2931 2816 2745 3113 
Q 2560 3411 2125 3411 
Q 1645 3411 1469 3097 
Q 1293 2784 1293 2259 
L 1293 1907 
L 710 1907 
L 710 2310 
Q 710 2842 883 3206 
Q 608 3328 464 3558 
Q 320 3789 320 4218 
L 320 4864 
L 902 4864 
L 902 4237 
Q 902 4013 982 3856 
Q 1062 3699 1197 3629 
Q 1370 3770 1600 3846 
Q 1830 3923 2125 3923 
Q 2861 3923 3187 3504 
Q 3514 3085 3514 2298 
L 3514 1338 
L 4141 1338 
L 4141 0 
L 3571 0 
L 3571 870 
L 1722 870 
Q 1658 634 1504 490 
Q 1350 346 1158 346 
L 1030 346 
z
" transform="scale(0.015625)"/>
        <path id="NotoSansEthiopic-Regular-12f0" d="M 96 0 
L 314 992 
L 1530 992 
Q 1229 1325 1056 1811 
Q 883 2298 883 2886 
Q 883 3782 1257 4211 
Q 1632 4640 2266 4640 
Q 2650 4640 2877 4509 
Q 3104 4378 3200 4166 
Q 3296 3955 3296 3712 
Q 3296 3373 3117 3101 
Q 2938 2829 2541 2672 
Q 2144 2515 1491 2515 
Q 1536 1997 1766 1616 
Q 1997 1235 2291 992 
L 3533 992 
L 3750 0 
L 3622 0 
Q 3430 0 3280 144 
Q 3130 288 3059 525 
L 787 525 
Q 723 288 569 144 
Q 416 0 224 0 
L 96 0 
z
M 1472 2970 
Q 2106 2976 2416 3142 
Q 2726 3309 2726 3699 
Q 2726 3942 2592 4073 
Q 2458 4205 2234 4205 
Q 1850 4205 1661 3894 
Q 1472 3584 1472 3053 
L 1472 2970 
z
" transform="scale(0.015625)"/>
        <path id="NotoSansEthiopic-Regular-1205" d="M 2656 -64 
Q 1920 -64 1593 355 
Q 1267 774 1267 1562 
L 1267 2899 
Q 998 2899 784 3011 
Q 570 3123 445 3382 
Q 320 3642 320 4090 
L 320 4570 
L 902 4570 
L 902 4109 
Q 902 3674 1014 3523 
Q 1126 3373 1382 3373 
L 1850 3373 
L 1850 1594 
Q 1850 1050 2035 749 
Q 2221 448 2656 448 
Q 3136 448 3312 761 
Q 3488 1075 3488 1600 
L 3488 4570 
L 4070 4570 
L 4070 1549 
Q 4070 819 3724 377 
Q 3379 -64 2656 -64 
z
" transform="scale(0.015625)"/>
        <path id="NotoSansEthiopic-Regular-1293" d="M 1574 0 
L 1574 1734 
L 448 1734 
L 448 2003 
Q 448 3328 899 3949 
Q 1350 4570 2349 4570 
L 2957 4570 
L 3174 3578 
L 3046 3578 
Q 2867 3578 2716 3706 
Q 2566 3834 2483 4102 
L 2323 4102 
Q 1926 4102 1644 3932 
Q 1363 3763 1209 3344 
Q 1056 2925 1030 2163 
L 2157 2163 
L 2157 0 
L 1574 0 
z
" transform="scale(0.015625)"/>
        <path id="NotoSansEthiopic-Regular-1218" d="M 1658 -64 
Q 1018 -64 733 464 
Q 448 992 448 1997 
Q 448 2765 637 3344 
Q 826 3923 1197 4246 
Q 1568 4570 2106 4570 
L 4416 4570 
Q 5075 4570 5382 4061 
Q 5690 3552 5690 2541 
Q 5690 1536 5373 1001 
Q 5056 467 4416 467 
L 3539 467 
L 3539 4122 
L 2829 4122 
L 2829 659 
Q 2624 339 2342 137 
Q 2061 -64 1658 -64 
z
M 1683 403 
Q 2029 403 2246 723 
L 2246 4122 
L 2157 4122 
Q 1613 4122 1315 3597 
Q 1018 3072 1018 2016 
Q 1018 1171 1197 787 
Q 1376 403 1683 403 
z
M 4122 928 
L 4333 928 
Q 4640 928 4813 1126 
Q 4986 1325 5056 1686 
Q 5126 2048 5126 2547 
Q 5126 3008 5052 3363 
Q 4979 3718 4812 3920 
Q 4646 4122 4365 4122 
L 4122 4122 
L 4122 928 
z
" transform="scale(0.015625)"/>
        <path id="NotoSansEthiopic-Regular-1323" d="M 4954 0 
L 4954 2771 
Q 4954 3174 4886 3462 
Q 4819 3750 4630 3904 
Q 4442 4058 4077 4058 
Q 3866 4058 3664 3984 
Q 3462 3910 3347 3808 
L 3347 1517 
L 2765 1517 
L 2765 4058 
L 2637 4058 
Q 1843 4058 1500 3629 
Q 1158 3200 1158 2419 
L 1158 1517 
L 576 1517 
L 576 2483 
Q 576 3469 1091 4019 
Q 1606 4570 2650 4570 
L 3347 4570 
L 3347 4275 
Q 3482 4384 3715 4477 
Q 3949 4570 4262 4570 
Q 4909 4570 5222 4141 
Q 5536 3712 5536 2950 
L 5536 0 
L 4954 0 
z
" transform="scale(0.015625)"/>
       </defs>
       <use xlink:href="#NotoSansEthiopic-Regular-12a5"/>
       <use xlink:href="#NotoSansEthiopic-Regular-1295" transform="translate(55.299988 0)"/>
       <use xlink:href="#NotoSansEthiopic-Regular-12b3" transform="translate(104.099976 0)"/>
       <use xlink:href="#NotoSansEthiopic-Regular-1295" transform="translate(172.299957 0)"/>
       <use xlink:href="#NotoSansEthiopic-Regular-20" transform="translate(221.099945 0)"/>
       <use xlink:href="#NotoSansEthiopic-Regular-12f0" transform="translate(247.09993 0)"/>
       <use xlink:href="#NotoSansEthiopic-Regular-1205" transform="translate(307.199921 0)"/>
       <use xlink:href="#NotoSansEthiopic-Regular-1293" transform="translate(379.799911 0)"/>
       <use xlink:href="#NotoSansEthiopic-Regular-20" transform="translate(430.899902 0)"/>
       <use xlink:href="#NotoSansEthiopic-Regular-1218" transform="translate(456.899887 0)"/>
       <use xlink:href="#NotoSansEthiopic-Regular-1323" transform="translate(552.799881 0)"/>
       <use xlink:href="#NotoSansEthiopic-Regular-1205" transform="translate(648.299866 0)"/>
      </g>
     </g>
    </g>
    <g id="xtick_3">
     <g id="line2d_3">
      <path d="M 165.707184 150.503508 
L 165.707184 22.318125 
" clip-path="url(#pa65ee19d24)" style="fill: none; stroke: #cccccc; stroke-linecap: round"/>
     </g>
     <g id="text_3">
      <!-- የሀገር መከላከያ ሰራዊት -->
      <g style="fill: #262626" transform="translate(97.524191 232.479081) rotate(-45) scale(0.11 -0.11)">
       <defs>
        <path id="NotoSansEthiopic-Regular-12e8" d="M 1254 0 
L 1254 602 
Q 1254 1094 1174 1475 
Q 1094 1856 864 2214 
Q 736 2419 608 2617 
Q 480 2816 400 3030 
Q 320 3245 320 3501 
Q 320 4064 662 4349 
Q 1005 4634 1568 4634 
Q 2163 4634 2454 4330 
Q 2746 4026 2746 3533 
Q 2746 3014 2400 2684 
Q 2054 2355 1510 2221 
Q 1638 1965 1708 1744 
Q 1779 1523 1808 1283 
Q 1837 1043 1837 704 
L 1837 0 
L 1254 0 
z
M 1286 2611 
Q 1702 2701 1939 2928 
Q 2176 3155 2176 3533 
Q 2176 3853 2013 4025 
Q 1850 4198 1542 4198 
Q 1242 4198 1069 4028 
Q 896 3859 896 3539 
Q 896 3277 1008 3046 
Q 1120 2816 1286 2611 
z
" transform="scale(0.015625)"/>
        <path id="NotoSansEthiopic-Regular-1200" d="M 1965 -64 
Q 1229 -64 902 355 
Q 576 774 576 1562 
L 576 4570 
L 1158 4570 
L 1158 1594 
Q 1158 1050 1344 749 
Q 1530 448 1965 448 
Q 2445 448 2621 761 
Q 2797 1075 2797 1600 
L 2797 4570 
L 3379 4570 
L 3379 1549 
Q 3379 819 3033 377 
Q 2688 -64 1965 -64 
z
" transform="scale(0.015625)"/>
        <path id="NotoSansEthiopic-Regular-1308" d="M 2496 0 
L 2496 2413 
Q 2496 3098 2339 3462 
Q 2182 3827 1833 3964 
Q 1485 4102 909 4102 
L 787 4102 
Q 704 3827 550 3702 
Q 397 3578 218 3578 
L 96 3578 
L 314 4570 
L 922 4570 
Q 1440 4570 1840 4486 
Q 2240 4403 2518 4188 
Q 2797 3974 2937 3587 
Q 3078 3200 3078 2586 
L 3078 0 
L 2496 0 
z
" transform="scale(0.015625)"/>
        <path id="NotoSansEthiopic-Regular-122d" d="M 2982 -525 
Q 2758 -525 2617 -352 
Q 2477 -179 2426 0 
L 2016 0 
Q 1171 0 809 352 
Q 448 704 448 1440 
L 448 2003 
Q 448 3328 899 3949 
Q 1350 4570 2349 4570 
L 2950 4570 
L 3168 3578 
L 3040 3578 
Q 2822 3578 2678 3741 
Q 2534 3904 2477 4102 
L 2317 4102 
Q 1907 4102 1619 3916 
Q 1331 3731 1180 3264 
Q 1030 2797 1030 1946 
L 1030 1472 
Q 1030 941 1260 704 
Q 1491 467 2035 467 
L 2426 467 
Q 2477 646 2621 816 
Q 2765 986 2982 986 
L 3117 986 
L 2950 230 
L 3117 -525 
L 2982 -525 
z
" transform="scale(0.015625)"/>
        <path id="NotoSansEthiopic-Regular-12a8" d="M 768 0 
L 768 2310 
Q 768 2822 934 3187 
Q 634 3309 477 3539 
Q 320 3770 320 4218 
L 320 4864 
L 902 4864 
L 902 4237 
Q 902 3994 992 3837 
Q 1082 3680 1235 3610 
Q 1408 3757 1641 3840 
Q 1875 3923 2182 3923 
Q 2918 3923 3244 3504 
Q 3571 3085 3571 2298 
L 3571 0 
L 2989 0 
L 2989 2266 
Q 2989 2816 2803 3113 
Q 2618 3411 2182 3411 
Q 1702 3411 1526 3097 
Q 1350 2784 1350 2259 
L 1350 0 
L 768 0 
z
" transform="scale(0.015625)"/>
        <path id="NotoSansEthiopic-Regular-120b" d="M 2874 0 
L 1907 3110 
Q 1645 3046 1440 2854 
Q 1235 2662 1084 2256 
Q 934 1850 826 1133 
L 275 1133 
Q 397 1933 582 2422 
Q 768 2912 1053 3181 
Q 1338 3450 1754 3578 
L 1446 4570 
L 2067 4570 
L 3482 0 
L 2874 0 
z
" transform="scale(0.015625)"/>
        <path id="NotoSansEthiopic-Regular-12eb" d="M 96 -525 
L 262 230 
L 96 986 
L 250 986 
Q 454 986 598 816 
Q 742 646 787 467 
L 1344 467 
L 1344 602 
Q 1344 1094 1264 1475 
Q 1184 1856 954 2214 
Q 826 2419 698 2617 
Q 570 2816 490 3030 
Q 410 3245 410 3501 
Q 410 4064 752 4349 
Q 1094 4634 1658 4634 
Q 2253 4634 2544 4330 
Q 2835 4026 2835 3533 
Q 2835 3014 2489 2684 
Q 2144 2355 1600 2221 
Q 1728 1965 1798 1744 
Q 1869 1523 1897 1283 
Q 1926 1043 1926 704 
L 1926 0 
L 787 0 
Q 742 -179 598 -352 
Q 454 -525 250 -525 
L 96 -525 
z
M 1376 2611 
Q 1792 2701 2029 2928 
Q 2266 3155 2266 3533 
Q 2266 3853 2102 4025 
Q 1939 4198 1632 4198 
Q 1331 4198 1158 4028 
Q 986 3859 986 3539 
Q 986 3277 1098 3046 
Q 1210 2816 1376 2611 
z
" transform="scale(0.015625)"/>
        <path id="NotoSansEthiopic-Regular-1230" d="M 576 0 
L 576 2310 
Q 576 2957 848 3382 
Q 1120 3808 1690 3898 
L 1690 4864 
L 2272 4864 
L 2272 3904 
Q 2854 3827 3116 3414 
Q 3379 3002 3379 2298 
L 3379 0 
L 2797 0 
L 2797 2266 
Q 2797 2816 2611 3113 
Q 2426 3411 1990 3411 
Q 1510 3411 1334 3097 
Q 1158 2784 1158 2259 
L 1158 0 
L 576 0 
z
" transform="scale(0.015625)"/>
        <path id="NotoSansEthiopic-Regular-122b" d="M 1792 0 
Q 1043 0 681 329 
Q 320 659 320 1235 
Q 320 1619 461 1907 
Q 602 2195 883 2483 
Q 1165 2771 1587 3162 
Q 1971 3520 2131 3840 
Q 2291 4160 2291 4570 
L 2874 4570 
Q 2874 3987 2605 3564 
Q 2336 3142 1907 2752 
Q 1549 2426 1334 2186 
Q 1120 1946 1024 1734 
Q 928 1523 928 1267 
Q 928 1043 1005 860 
Q 1082 678 1270 572 
Q 1459 467 1792 467 
L 1843 467 
Q 1926 1210 2291 1600 
Q 2656 1990 3392 1990 
L 3936 1990 
L 4154 998 
L 4038 998 
Q 3821 998 3677 1142 
Q 3533 1286 3462 1523 
Q 3091 1523 2867 1379 
Q 2643 1235 2531 902 
Q 2419 570 2394 0 
L 1792 0 
z
" transform="scale(0.015625)"/>
        <path id="NotoSansEthiopic-Regular-12ca" d="M 2042 0 
L 2042 1920 
Q 1773 1792 1427 1792 
Q 883 1792 563 2118 
Q 243 2445 243 3046 
Q 243 3750 652 4160 
Q 1062 4570 1805 4570 
L 3040 4570 
Q 3610 4570 3904 4275 
Q 4198 3981 4198 3507 
Q 4198 3168 4073 2899 
Q 3949 2630 3686 2476 
Q 3424 2323 3002 2323 
L 2624 2323 
L 2624 467 
L 3174 467 
Q 3226 646 3370 816 
Q 3514 986 3712 986 
L 3866 986 
L 3699 230 
L 3866 -525 
L 3712 -525 
Q 3514 -525 3370 -352 
Q 3226 -179 3174 0 
L 2042 0 
z
M 1459 2246 
Q 1664 2246 1801 2304 
Q 1939 2362 2042 2451 
L 2042 4147 
L 1862 4147 
Q 1376 4147 1094 3862 
Q 813 3578 813 3046 
Q 813 2656 989 2451 
Q 1165 2246 1459 2246 
z
M 2624 2746 
L 2970 2746 
Q 3226 2746 3370 2854 
Q 3514 2963 3571 3129 
Q 3629 3296 3629 3475 
Q 3629 3635 3574 3788 
Q 3520 3942 3392 4044 
Q 3264 4147 3027 4147 
L 2624 4147 
L 2624 2746 
z
" transform="scale(0.015625)"/>
        <path id="NotoSansEthiopic-Regular-1275" d="M 1677 0 
L 1677 2624 
L 787 2624 
Q 723 2387 569 2243 
Q 416 2099 224 2099 
L 96 2099 
L 314 3091 
L 1677 3091 
L 1677 3539 
Q 1165 3558 883 3820 
Q 602 4083 602 4659 
L 602 5146 
L 1184 5146 
L 1184 4710 
Q 1184 4294 1344 4153 
Q 1504 4013 1837 4013 
L 2259 4013 
L 2259 3091 
L 3533 3091 
L 3750 2099 
L 3622 2099 
Q 3430 2099 3280 2243 
Q 3130 2387 3059 2624 
L 2259 2624 
L 2259 0 
L 1677 0 
z
" transform="scale(0.015625)"/>
       </defs>
       <use xlink:href="#NotoSansEthiopic-Regular-12e8"/>
       <use xlink:href="#NotoSansEthiopic-Regular-1200" transform="translate(46.899994 0)"/>
       <use xlink:href="#NotoSansEthiopic-Regular-1308" transform="translate(108.699982 0)"/>
       <use xlink:href="#NotoSansEthiopic-Regular-122d" transform="translate(165.799973 0)"/>
       <use xlink:href="#NotoSansEthiopic-Regular-20" transform="translate(216.799957 0)"/>
       <use xlink:href="#NotoSansEthiopic-Regular-1218" transform="translate(242.799942 0)"/>
       <use xlink:href="#NotoSansEthiopic-Regular-12a8" transform="translate(338.699936 0)"/>
       <use xlink:href="#NotoSansEthiopic-Regular-120b" transform="translate(403.499924 0)"/>
       <use xlink:href="#NotoSansEthiopic-Regular-12a8" transform="translate(460.399918 0)"/>
       <use xlink:href="#NotoSansEthiopic-Regular-12eb" transform="translate(525.199905 0)"/>
       <use xlink:href="#NotoSansEthiopic-Regular-20" transform="translate(573.499893 0)"/>
       <use xlink:href="#NotoSansEthiopic-Regular-1230" transform="translate(599.499878 0)"/>
       <use xlink:href="#NotoSansEthiopic-Regular-122b" transform="translate(661.299866 0)"/>
       <use xlink:href="#NotoSansEthiopic-Regular-12ca" transform="translate(727.69986 0)"/>
       <use xlink:href="#NotoSansEthiopic-Regular-1275" transform="translate(795.699844 0)"/>
      </g>
     </g>
    </g>
    <g id="xtick_4">
     <g id="line2d_4">
      <path d="M 206.474997 150.503508 
L 206.474997 22.318125 
" clip-path="url(#pa65ee19d24)" style="fill: none; stroke: #cccccc; stroke-linecap: round"/>
     </g>
     <g id="text_4">
      <!-- የኢትዮጵያ መከላከያ ሰራዊት -->
      <g style="fill: #262626" transform="translate(127.526525 243.24456) rotate(-45) scale(0.11 -0.11)">
       <defs>
        <path id="NotoSansEthiopic-Regular-12a2" d="M 352 0 
L 1555 2925 
Q 973 2944 681 3222 
Q 390 3501 390 4077 
L 390 4563 
L 973 4563 
L 973 4128 
Q 973 3712 1133 3571 
Q 1293 3430 1626 3430 
L 2374 3430 
L 1990 2470 
Q 2310 2349 2582 2112 
Q 2854 1875 3046 1475 
Q 3238 1075 3328 467 
L 3789 467 
Q 3840 646 3984 816 
Q 4128 986 4326 986 
L 4480 986 
L 4314 230 
L 4480 -525 
L 4326 -525 
Q 4128 -525 3984 -352 
Q 3840 -179 3789 0 
L 2797 0 
Q 2765 582 2624 966 
Q 2483 1350 2265 1584 
Q 2048 1818 1779 1952 
L 998 0 
L 352 0 
z
" transform="scale(0.015625)"/>
        <path id="NotoSansEthiopic-Regular-12ee" d="M 1254 0 
L 1254 602 
Q 1254 1094 1174 1475 
Q 1094 1856 864 2214 
Q 736 2419 608 2617 
Q 480 2816 400 3030 
Q 320 3245 320 3501 
Q 320 4064 662 4349 
Q 1005 4634 1568 4634 
Q 2106 4634 2394 4387 
Q 2682 4141 2733 3725 
L 3731 3725 
L 3949 2733 
L 3821 2733 
Q 3629 2733 3478 2877 
Q 3328 3021 3258 3258 
L 2714 3258 
Q 2630 2854 2304 2595 
Q 1978 2336 1510 2221 
Q 1638 1965 1708 1744 
Q 1779 1523 1808 1283 
Q 1837 1043 1837 704 
L 1837 0 
L 1254 0 
z
M 1286 2611 
Q 1702 2701 1939 2928 
Q 2176 3155 2176 3533 
Q 2176 3853 2013 4025 
Q 1850 4198 1542 4198 
Q 1242 4198 1069 4028 
Q 896 3859 896 3539 
Q 896 3277 1008 3046 
Q 1120 2816 1286 2611 
z
" transform="scale(0.015625)"/>
        <path id="NotoSansEthiopic-Regular-1335" d="M 224 0 
Q 224 461 333 822 
Q 442 1184 701 1497 
Q 960 1811 1402 2125 
Q 1056 2272 835 2528 
Q 614 2784 614 3187 
Q 614 3590 848 3865 
Q 1082 4141 1472 4224 
L 1472 4864 
L 2054 4864 
L 2054 4224 
Q 2400 4160 2608 3961 
Q 2816 3763 2874 3482 
L 3859 3482 
L 4077 2490 
L 3949 2490 
Q 3757 2490 3606 2634 
Q 3456 2778 3386 3014 
L 2874 3014 
Q 2816 2714 2598 2470 
Q 2381 2227 2010 1984 
Q 2426 1856 2714 1641 
Q 3002 1427 3152 1075 
Q 3302 723 3302 173 
L 3302 0 
L 2726 0 
L 2726 70 
Q 2726 563 2588 876 
Q 2451 1190 2188 1372 
Q 1926 1555 1562 1658 
Q 1274 1427 1107 1190 
Q 941 954 870 666 
Q 800 378 800 0 
L 224 0 
z
M 1171 3194 
Q 1171 2906 1347 2717 
Q 1523 2528 1830 2419 
Q 2093 2611 2211 2793 
Q 2330 2976 2330 3219 
Q 2330 3469 2182 3632 
Q 2035 3795 1754 3795 
Q 1485 3795 1328 3628 
Q 1171 3462 1171 3194 
z
" transform="scale(0.015625)"/>
       </defs>
       <use xlink:href="#NotoSansEthiopic-Regular-12e8"/>
       <use xlink:href="#NotoSansEthiopic-Regular-12a2" transform="translate(46.899994 0)"/>
       <use xlink:href="#NotoSansEthiopic-Regular-1275" transform="translate(118.399979 0)"/>
       <use xlink:href="#NotoSansEthiopic-Regular-12ee" transform="translate(178.499969 0)"/>
       <use xlink:href="#NotoSansEthiopic-Regular-1335" transform="translate(241.699966 0)"/>
       <use xlink:href="#NotoSansEthiopic-Regular-12eb" transform="translate(306.899963 0)"/>
       <use xlink:href="#NotoSansEthiopic-Regular-20" transform="translate(355.199951 0)"/>
       <use xlink:href="#NotoSansEthiopic-Regular-1218" transform="translate(381.199936 0)"/>
       <use xlink:href="#NotoSansEthiopic-Regular-12a8" transform="translate(477.09993 0)"/>
       <use xlink:href="#NotoSansEthiopic-Regular-120b" transform="translate(541.899918 0)"/>
       <use xlink:href="#NotoSansEthiopic-Regular-12a8" transform="translate(598.799911 0)"/>
       <use xlink:href="#NotoSansEthiopic-Regular-12eb" transform="translate(663.599899 0)"/>
       <use xlink:href="#NotoSansEthiopic-Regular-20" transform="translate(711.899887 0)"/>
       <use xlink:href="#NotoSansEthiopic-Regular-1230" transform="translate(737.899872 0)"/>
       <use xlink:href="#NotoSansEthiopic-Regular-122b" transform="translate(799.69986 0)"/>
       <use xlink:href="#NotoSansEthiopic-Regular-12ca" transform="translate(866.099854 0)"/>
       <use xlink:href="#NotoSansEthiopic-Regular-1275" transform="translate(934.099838 0)"/>
      </g>
     </g>
    </g>
    <g id="xtick_5">
     <g id="line2d_5">
      <path d="M 247.24281 150.503508 
L 247.24281 22.318125 
" clip-path="url(#pa65ee19d24)" style="fill: none; stroke: #cccccc; stroke-linecap: round"/>
     </g>
     <g id="text_5">
      <!-- ቻናላችንን ሊንክ ይቀላቀሉ -->
      <g style="fill: #262626" transform="translate(175.147639 236.391259) rotate(-45) scale(0.11 -0.11)">
       <defs>
        <path id="NotoSansEthiopic-Regular-127b" d="M 96 -525 
L 314 467 
L 851 467 
Q 1190 467 1385 560 
Q 1581 653 1664 877 
Q 1747 1101 1747 1478 
L 1747 2957 
L 902 2957 
Q 838 2720 684 2576 
Q 531 2432 339 2432 
L 211 2432 
L 429 3424 
L 1747 3424 
L 1747 4480 
L 1037 4480 
Q 992 4301 848 4128 
Q 704 3955 499 3955 
L 346 3955 
L 512 4710 
L 346 5466 
L 499 5466 
Q 704 5466 848 5296 
Q 992 5126 1037 4947 
L 3040 4947 
Q 3091 5126 3235 5296 
Q 3379 5466 3578 5466 
L 3731 5466 
L 3565 4710 
L 3731 3955 
L 3578 3955 
Q 3379 3955 3235 4128 
Q 3091 4301 3040 4480 
L 2330 4480 
L 2330 3424 
L 3648 3424 
L 3866 2432 
L 3738 2432 
Q 3546 2432 3395 2576 
Q 3245 2720 3174 2957 
L 2330 2957 
L 2330 1434 
Q 2330 736 1990 368 
Q 1651 0 954 0 
L 787 0 
Q 730 -224 576 -374 
Q 422 -525 224 -525 
L 96 -525 
z
" transform="scale(0.015625)"/>
        <path id="NotoSansEthiopic-Regular-127d" d="M 934 1997 
L 1152 2989 
L 2502 2989 
L 2502 3213 
Q 1990 3232 1708 3494 
Q 1427 3757 1427 4333 
L 1427 4480 
L 314 4480 
L 96 5466 
L 250 5466 
Q 454 5466 598 5296 
Q 742 5126 787 4947 
L 2592 4947 
Q 2643 5126 2787 5296 
Q 2931 5466 3130 5466 
L 3283 5466 
L 3117 4710 
L 3283 3955 
L 3130 3955 
Q 2931 3955 2787 4128 
Q 2643 4301 2592 4480 
L 2010 4480 
L 2010 4384 
Q 2010 3968 2170 3827 
Q 2330 3686 2662 3686 
L 3085 3686 
L 3085 2989 
L 4371 2989 
L 4589 1997 
L 4461 1997 
Q 4269 1997 4118 2141 
Q 3968 2285 3898 2522 
L 3085 2522 
L 3085 0 
L 2502 0 
L 2502 2522 
L 1626 2522 
Q 1562 2285 1408 2141 
Q 1254 1997 1062 1997 
L 934 1997 
z
" transform="scale(0.015625)"/>
        <path id="NotoSansEthiopic-Regular-120a" d="M 275 0 
Q 365 915 486 1545 
Q 608 2176 790 2585 
Q 973 2995 1241 3228 
Q 1510 3462 1888 3578 
L 1581 4570 
L 2202 4570 
L 3469 467 
L 4032 467 
Q 4083 646 4227 816 
Q 4371 986 4570 986 
L 4723 986 
L 4557 230 
L 4723 -525 
L 4570 -525 
Q 4371 -525 4227 -352 
Q 4083 -179 4032 0 
L 3008 0 
L 2042 3110 
Q 1798 3053 1606 2883 
Q 1414 2714 1267 2368 
Q 1120 2022 1014 1449 
Q 909 877 838 0 
L 275 0 
z
" transform="scale(0.015625)"/>
        <path id="NotoSansEthiopic-Regular-12ad" d="M 768 0 
L 768 1210 
Q 768 1536 883 1782 
Q 998 2029 1254 2170 
L 768 2170 
L 768 2310 
Q 768 2822 934 3187 
Q 634 3309 477 3539 
Q 320 3770 320 4218 
L 320 4864 
L 902 4864 
L 902 4237 
Q 902 3994 992 3837 
Q 1082 3680 1235 3610 
Q 1408 3757 1641 3840 
Q 1875 3923 2182 3923 
Q 2918 3923 3244 3504 
Q 3571 3085 3571 2298 
L 3571 0 
L 2989 0 
L 2989 2266 
Q 2989 2816 2803 3113 
Q 2618 3411 2182 3411 
Q 1702 3411 1526 3097 
Q 1350 2784 1350 2259 
L 1350 2214 
Q 1619 2330 2010 2330 
L 2010 1818 
Q 1734 1818 1590 1741 
Q 1446 1664 1398 1520 
Q 1350 1376 1350 1165 
L 1350 0 
L 768 0 
z
" transform="scale(0.015625)"/>
        <path id="NotoSansEthiopic-Regular-12ed" d="M 192 -525 
L 410 467 
L 1562 467 
Q 1152 838 944 1443 
Q 736 2048 736 2784 
Q 736 3462 905 3868 
Q 1075 4275 1385 4457 
Q 1696 4640 2112 4640 
Q 2502 4640 2729 4509 
Q 2957 4378 3053 4166 
Q 3149 3955 3149 3712 
Q 3149 3373 2969 3101 
Q 2790 2829 2393 2672 
Q 1997 2515 1344 2515 
Q 1370 1926 1558 1475 
Q 1747 1024 2067 768 
Q 2387 512 2803 512 
Q 3238 512 3414 774 
Q 3590 1037 3590 1466 
L 3590 1709 
L 4173 1709 
L 4173 1523 
Q 4173 781 3814 390 
Q 3456 0 2797 0 
Q 2784 0 2771 0 
L 2771 0 
L 883 0 
Q 819 -237 665 -381 
Q 512 -525 320 -525 
L 192 -525 
z
M 1325 2970 
Q 1958 2976 2268 3142 
Q 2579 3309 2579 3686 
Q 2579 3949 2441 4077 
Q 2304 4205 2080 4205 
Q 1709 4205 1517 3894 
Q 1325 3584 1325 3053 
L 1325 2970 
z
" transform="scale(0.015625)"/>
        <path id="NotoSansEthiopic-Regular-1240" d="M 1792 0 
L 1792 1453 
Q 1178 1472 845 1638 
Q 512 1805 384 2051 
Q 256 2298 256 2560 
Q 256 2835 384 3078 
Q 512 3322 845 3478 
Q 1178 3635 1792 3654 
L 1792 4570 
L 2374 4570 
L 2374 3654 
Q 2982 3635 3315 3478 
Q 3648 3322 3779 3078 
Q 3910 2835 3910 2560 
Q 3910 2374 3840 2188 
Q 3770 2003 3600 1840 
Q 3430 1677 3129 1574 
Q 2829 1472 2374 1453 
L 2374 0 
L 1792 0 
z
M 838 2560 
Q 838 2387 915 2249 
Q 992 2112 1197 2029 
Q 1402 1946 1792 1933 
L 1792 3174 
Q 1382 3162 1177 3072 
Q 973 2982 905 2848 
Q 838 2714 838 2560 
z
M 3328 2560 
Q 3328 2714 3254 2848 
Q 3181 2982 2973 3068 
Q 2765 3155 2374 3174 
L 2374 1933 
Q 2758 1946 2966 2032 
Q 3174 2118 3251 2256 
Q 3328 2394 3328 2560 
z
" transform="scale(0.015625)"/>
        <path id="NotoSansEthiopic-Regular-1209" d="M 275 0 
Q 365 915 486 1545 
Q 608 2176 790 2585 
Q 973 2995 1241 3228 
Q 1510 3462 1888 3578 
L 1581 4570 
L 2202 4570 
L 2906 2298 
L 3955 2298 
L 4173 1306 
L 4045 1306 
Q 3853 1306 3702 1450 
Q 3552 1594 3482 1830 
L 3046 1830 
L 3616 0 
L 3008 0 
L 2042 3110 
Q 1798 3053 1606 2883 
Q 1414 2714 1267 2368 
Q 1120 2022 1014 1449 
Q 909 877 838 0 
L 275 0 
z
" transform="scale(0.015625)"/>
       </defs>
       <use xlink:href="#NotoSansEthiopic-Regular-127b"/>
       <use xlink:href="#NotoSansEthiopic-Regular-1293" transform="translate(61.899994 0)"/>
       <use xlink:href="#NotoSansEthiopic-Regular-120b" transform="translate(112.999985 0)"/>
       <use xlink:href="#NotoSansEthiopic-Regular-127d" transform="translate(169.899979 0)"/>
       <use xlink:href="#NotoSansEthiopic-Regular-1295" transform="translate(243.09996 0)"/>
       <use xlink:href="#NotoSansEthiopic-Regular-1295" transform="translate(291.899948 0)"/>
       <use xlink:href="#NotoSansEthiopic-Regular-20" transform="translate(340.699936 0)"/>
       <use xlink:href="#NotoSansEthiopic-Regular-120a" transform="translate(366.699921 0)"/>
       <use xlink:href="#NotoSansEthiopic-Regular-1295" transform="translate(441.999908 0)"/>
       <use xlink:href="#NotoSansEthiopic-Regular-12ad" transform="translate(490.799896 0)"/>
       <use xlink:href="#NotoSansEthiopic-Regular-20" transform="translate(555.599884 0)"/>
       <use xlink:href="#NotoSansEthiopic-Regular-12ed" transform="translate(581.599869 0)"/>
       <use xlink:href="#NotoSansEthiopic-Regular-1240" transform="translate(652.29985 0)"/>
       <use xlink:href="#NotoSansEthiopic-Regular-120b" transform="translate(717.399841 0)"/>
       <use xlink:href="#NotoSansEthiopic-Regular-1240" transform="translate(774.299835 0)"/>
       <use xlink:href="#NotoSansEthiopic-Regular-1209" transform="translate(839.399826 0)"/>
      </g>
     </g>
    </g>
    <g id="xtick_6">
     <g id="line2d_6">
      <path d="M 288.010623 150.503508 
L 288.010623 22.318125 
" clip-path="url(#pa65ee19d24)" style="fill: none; stroke: #cccccc; stroke-linecap: round"/>
     </g>
     <g id="text_6">
      <!-- አዲስአመት አዲስአመት አዲስአመት -->
      <g style="fill: #262626" transform="translate(185.816347 266.490364) rotate(-45) scale(0.11 -0.11)">
       <defs>
        <path id="NotoSansEthiopic-Regular-12a0" d="M 352 0 
L 1555 2925 
Q 973 2944 681 3222 
Q 390 3501 390 4077 
L 390 4563 
L 973 4563 
L 973 4128 
Q 973 3712 1133 3571 
Q 1293 3430 1626 3430 
L 2374 3430 
L 1990 2470 
Q 2349 2336 2643 2051 
Q 2938 1766 3130 1270 
Q 3322 774 3379 0 
L 2797 0 
Q 2765 582 2624 966 
Q 2483 1350 2265 1584 
Q 2048 1818 1779 1952 
L 998 0 
L 352 0 
z
" transform="scale(0.015625)"/>
        <path id="NotoSansEthiopic-Regular-12f2" d="M 96 832 
L 314 1824 
L 1907 1824 
Q 1549 2054 1350 2441 
Q 1152 2829 1152 3322 
Q 1152 3930 1465 4285 
Q 1779 4640 2394 4640 
Q 2803 4640 3027 4496 
Q 3251 4352 3344 4141 
Q 3437 3930 3437 3712 
Q 3437 3411 3280 3158 
Q 3123 2906 2793 2746 
Q 2464 2586 1946 2573 
Q 2118 2278 2422 2080 
Q 2726 1882 3136 1824 
L 4077 1824 
L 4077 467 
L 4672 467 
Q 4723 646 4867 816 
Q 5011 986 5210 986 
L 5363 986 
L 5197 230 
L 5363 -525 
L 5210 -525 
Q 5011 -525 4867 -352 
Q 4723 -179 4672 0 
L 3494 0 
L 3494 1357 
L 787 1357 
Q 723 1120 569 976 
Q 416 832 224 832 
L 96 832 
z
M 1741 3373 
Q 1741 3187 1779 3014 
Q 2336 3034 2601 3203 
Q 2867 3373 2867 3699 
Q 2867 3936 2739 4064 
Q 2611 4192 2368 4192 
Q 2054 4192 1897 3977 
Q 1741 3763 1741 3373 
z
" transform="scale(0.015625)"/>
        <path id="NotoSansEthiopic-Regular-1235" d="M 576 0 
L 576 2310 
Q 576 2950 838 3369 
Q 1101 3789 1651 3891 
L 1171 4864 
L 1792 4864 
L 2266 3904 
Q 2854 3827 3116 3417 
Q 3379 3008 3379 2298 
L 3379 0 
L 2797 0 
L 2797 2266 
Q 2797 2816 2611 3113 
Q 2426 3411 1990 3411 
Q 1510 3411 1334 3097 
Q 1158 2784 1158 2259 
L 1158 0 
L 576 0 
z
" transform="scale(0.015625)"/>
       </defs>
       <use xlink:href="#NotoSansEthiopic-Regular-12a0"/>
       <use xlink:href="#NotoSansEthiopic-Regular-12f2" transform="translate(55.299988 0)"/>
       <use xlink:href="#NotoSansEthiopic-Regular-1235" transform="translate(140.599976 0)"/>
       <use xlink:href="#NotoSansEthiopic-Regular-12a0" transform="translate(202.399963 0)"/>
       <use xlink:href="#NotoSansEthiopic-Regular-1218" transform="translate(257.699951 0)"/>
       <use xlink:href="#NotoSansEthiopic-Regular-1275" transform="translate(353.599945 0)"/>
       <use xlink:href="#NotoSansEthiopic-Regular-20" transform="translate(413.699936 0)"/>
       <use xlink:href="#NotoSansEthiopic-Regular-12a0" transform="translate(439.699921 0)"/>
       <use xlink:href="#NotoSansEthiopic-Regular-12f2" transform="translate(494.999908 0)"/>
       <use xlink:href="#NotoSansEthiopic-Regular-1235" transform="translate(580.299896 0)"/>
       <use xlink:href="#NotoSansEthiopic-Regular-12a0" transform="translate(642.099884 0)"/>
       <use xlink:href="#NotoSansEthiopic-Regular-1218" transform="translate(697.399872 0)"/>
       <use xlink:href="#NotoSansEthiopic-Regular-1275" transform="translate(793.299866 0)"/>
       <use xlink:href="#NotoSansEthiopic-Regular-20" transform="translate(853.399857 0)"/>
       <use xlink:href="#NotoSansEthiopic-Regular-12a0" transform="translate(879.399841 0)"/>
       <use xlink:href="#NotoSansEthiopic-Regular-12f2" transform="translate(934.699829 0)"/>
       <use xlink:href="#NotoSansEthiopic-Regular-1235" transform="translate(1019.999817 0)"/>
       <use xlink:href="#NotoSansEthiopic-Regular-12a0" transform="translate(1081.799805 0)"/>
       <use xlink:href="#NotoSansEthiopic-Regular-1218" transform="translate(1137.099792 0)"/>
       <use xlink:href="#NotoSansEthiopic-Regular-1275" transform="translate(1232.999786 0)"/>
      </g>
     </g>
    </g>
    <g id="xtick_7">
     <g id="line2d_7">
      <path d="M 328.778437 150.503508 
L 328.778437 22.318125 
" clip-path="url(#pa65ee19d24)" style="fill: none; stroke: #cccccc; stroke-linecap: round"/>
     </g>
     <g id="text_7">
      <!-- የአገር መከላከያ ሰራዊት -->
      <g style="fill: #262626" transform="translate(261.101026 231.973499) rotate(-45) scale(0.11 -0.11)">
       <use xlink:href="#NotoSansEthiopic-Regular-12e8"/>
       <use xlink:href="#NotoSansEthiopic-Regular-12a0" transform="translate(46.899994 0)"/>
       <use xlink:href="#NotoSansEthiopic-Regular-1308" transform="translate(102.199982 0)"/>
       <use xlink:href="#NotoSansEthiopic-Regular-122d" transform="translate(159.299973 0)"/>
       <use xlink:href="#NotoSansEthiopic-Regular-20" transform="translate(210.299957 0)"/>
       <use xlink:href="#NotoSansEthiopic-Regular-1218" transform="translate(236.299942 0)"/>
       <use xlink:href="#NotoSansEthiopic-Regular-12a8" transform="translate(332.199936 0)"/>
       <use xlink:href="#NotoSansEthiopic-Regular-120b" transform="translate(396.999924 0)"/>
       <use xlink:href="#NotoSansEthiopic-Regular-12a8" transform="translate(453.899918 0)"/>
       <use xlink:href="#NotoSansEthiopic-Regular-12eb" transform="translate(518.699905 0)"/>
       <use xlink:href="#NotoSansEthiopic-Regular-20" transform="translate(566.999893 0)"/>
       <use xlink:href="#NotoSansEthiopic-Regular-1230" transform="translate(592.999878 0)"/>
       <use xlink:href="#NotoSansEthiopic-Regular-122b" transform="translate(654.799866 0)"/>
       <use xlink:href="#NotoSansEthiopic-Regular-12ca" transform="translate(721.19986 0)"/>
       <use xlink:href="#NotoSansEthiopic-Regular-1275" transform="translate(789.199844 0)"/>
      </g>
     </g>
    </g>
    <g id="xtick_8">
     <g id="line2d_8">
      <path d="M 369.54625 150.503508 
L 369.54625 22.318125 
" clip-path="url(#pa65ee19d24)" style="fill: none; stroke: #cccccc; stroke-linecap: round"/>
     </g>
     <g id="text_8">
      <!-- የአማራ ክልል መንግስት -->
      <g style="fill: #262626" transform="translate(301.883423 231.958915) rotate(-45) scale(0.11 -0.11)">
       <defs>
        <path id="NotoSansEthiopic-Regular-121b" d="M 3520 0 
L 4474 2317 
L 4134 2317 
Q 3686 2317 3446 2537 
Q 3206 2758 3206 3187 
Q 3206 3642 3315 4147 
L 2624 4147 
L 2624 2304 
Q 2406 2080 2105 1936 
Q 1805 1792 1427 1792 
Q 883 1792 563 2118 
Q 243 2445 243 3046 
Q 243 3750 662 4160 
Q 1082 4570 1824 4570 
L 4358 4570 
Q 5466 4570 5466 3667 
Q 5466 3424 5363 3091 
Q 5261 2758 5133 2458 
L 4115 0 
L 3520 0 
z
M 1459 2246 
Q 1664 2246 1798 2304 
Q 1933 2362 2042 2451 
L 2042 4147 
L 1862 4147 
Q 1376 4147 1094 3862 
Q 813 3578 813 3046 
Q 813 2656 989 2451 
Q 1165 2246 1459 2246 
z
M 4461 2739 
L 4646 2739 
L 4787 3091 
Q 4838 3213 4873 3357 
Q 4909 3501 4909 3642 
Q 4909 3885 4749 4016 
Q 4589 4147 4307 4147 
L 3878 4147 
Q 3821 3866 3795 3654 
Q 3770 3443 3770 3251 
Q 3770 2976 3920 2857 
Q 4070 2739 4461 2739 
z
" transform="scale(0.015625)"/>
        <path id="NotoSansEthiopic-Regular-120d" d="M 275 0 
Q 365 915 496 1552 
Q 627 2189 825 2598 
Q 1024 3008 1302 3248 
Q 1581 3488 1958 3603 
L 1542 4570 
L 2163 4570 
L 4134 0 
L 3526 0 
L 2150 3136 
Q 1811 3034 1523 2704 
Q 1235 2374 1088 1690 
L 1562 1690 
Q 1965 1690 2198 1475 
Q 2432 1261 2432 896 
Q 2432 467 2137 233 
Q 1843 0 1312 0 
L 275 0 
z
M 902 422 
L 1203 422 
Q 1862 422 1862 877 
Q 1862 1254 1376 1254 
L 1011 1254 
Q 979 1043 950 835 
Q 922 627 902 422 
z
" transform="scale(0.015625)"/>
        <path id="NotoSansEthiopic-Regular-130d" d="M 1203 2880 
Q 640 2880 400 3120 
Q 160 3360 160 3712 
Q 160 4083 425 4326 
Q 691 4570 1203 4570 
L 1229 4570 
L 1229 4570 
L 2138 4570 
Q 2656 4570 3046 4486 
Q 3437 4403 3702 4188 
Q 3968 3974 4099 3587 
Q 4230 3200 4230 2586 
L 4230 0 
L 3648 0 
L 3648 2413 
Q 3648 3098 3510 3472 
Q 3373 3846 3053 3996 
Q 2733 4147 2170 4147 
L 2144 4147 
Q 2246 3968 2246 3731 
Q 2246 3379 1980 3129 
Q 1715 2880 1203 2880 
z
M 1203 3309 
Q 1446 3309 1561 3417 
Q 1677 3526 1677 3725 
Q 1677 3917 1558 4025 
Q 1440 4134 1203 4134 
Q 966 4134 848 4025 
Q 730 3917 730 3725 
Q 730 3526 848 3417 
Q 966 3309 1203 3309 
z
" transform="scale(0.015625)"/>
       </defs>
       <use xlink:href="#NotoSansEthiopic-Regular-12e8"/>
       <use xlink:href="#NotoSansEthiopic-Regular-12a0" transform="translate(46.899994 0)"/>
       <use xlink:href="#NotoSansEthiopic-Regular-121b" transform="translate(102.199982 0)"/>
       <use xlink:href="#NotoSansEthiopic-Regular-122b" transform="translate(191.399963 0)"/>
       <use xlink:href="#NotoSansEthiopic-Regular-20" transform="translate(257.799957 0)"/>
       <use xlink:href="#NotoSansEthiopic-Regular-12ad" transform="translate(283.799942 0)"/>
       <use xlink:href="#NotoSansEthiopic-Regular-120d" transform="translate(348.59993 0)"/>
       <use xlink:href="#NotoSansEthiopic-Regular-120d" transform="translate(414.999924 0)"/>
       <use xlink:href="#NotoSansEthiopic-Regular-20" transform="translate(481.399918 0)"/>
       <use xlink:href="#NotoSansEthiopic-Regular-1218" transform="translate(507.399902 0)"/>
       <use xlink:href="#NotoSansEthiopic-Regular-1295" transform="translate(603.299896 0)"/>
       <use xlink:href="#NotoSansEthiopic-Regular-130d" transform="translate(652.099884 0)"/>
       <use xlink:href="#NotoSansEthiopic-Regular-1235" transform="translate(727.199875 0)"/>
       <use xlink:href="#NotoSansEthiopic-Regular-1275" transform="translate(788.999863 0)"/>
      </g>
     </g>
    </g>
    <g id="xtick_9">
     <g id="line2d_9">
      <path d="M 410.314063 150.503508 
L 410.314063 22.318125 
" clip-path="url(#pa65ee19d24)" style="fill: none; stroke: #cccccc; stroke-linecap: round"/>
     </g>
     <g id="text_9">
      <!-- የኢትዮጵያ አየር ሀይል -->
      <g style="fill: #262626" transform="translate(349.635794 224.974358) rotate(-45) scale(0.11 -0.11)">
       <use xlink:href="#NotoSansEthiopic-Regular-12e8"/>
       <use xlink:href="#NotoSansEthiopic-Regular-12a2" transform="translate(46.899994 0)"/>
       <use xlink:href="#NotoSansEthiopic-Regular-1275" transform="translate(118.399979 0)"/>
       <use xlink:href="#NotoSansEthiopic-Regular-12ee" transform="translate(178.499969 0)"/>
       <use xlink:href="#NotoSansEthiopic-Regular-1335" transform="translate(241.699966 0)"/>
       <use xlink:href="#NotoSansEthiopic-Regular-12eb" transform="translate(306.899963 0)"/>
       <use xlink:href="#NotoSansEthiopic-Regular-20" transform="translate(355.199951 0)"/>
       <use xlink:href="#NotoSansEthiopic-Regular-12a0" transform="translate(381.199936 0)"/>
       <use xlink:href="#NotoSansEthiopic-Regular-12e8" transform="translate(436.499924 0)"/>
       <use xlink:href="#NotoSansEthiopic-Regular-122d" transform="translate(483.399918 0)"/>
       <use xlink:href="#NotoSansEthiopic-Regular-20" transform="translate(534.399902 0)"/>
       <use xlink:href="#NotoSansEthiopic-Regular-1200" transform="translate(560.399887 0)"/>
       <use xlink:href="#NotoSansEthiopic-Regular-12ed" transform="translate(622.199875 0)"/>
       <use xlink:href="#NotoSansEthiopic-Regular-120d" transform="translate(692.899857 0)"/>
      </g>
     </g>
    </g>
    <g id="xtick_10">
     <g id="line2d_10">
      <path d="M 451.081877 150.503508 
L 451.081877 22.318125 
" clip-path="url(#pa65ee19d24)" style="fill: none; stroke: #cccccc; stroke-linecap: round"/>
     </g>
     <g id="text_10">
      <!-- የመከላከያ ሰራዊት አባላት -->
      <g style="fill: #262626" transform="translate(377.967035 237.41093) rotate(-45) scale(0.11 -0.11)">
       <defs>
        <path id="NotoSansEthiopic-Regular-1263" d="M 2746 0 
L 2746 2976 
Q 2746 3526 2560 3824 
Q 2374 4122 1939 4122 
Q 1459 4122 1283 3808 
Q 1107 3494 1107 2970 
L 1107 1536 
L 525 1536 
L 525 3021 
Q 525 3750 870 4192 
Q 1216 4634 1939 4634 
Q 2675 4634 3001 4214 
Q 3328 3795 3328 3008 
L 3328 0 
L 2746 0 
z
" transform="scale(0.015625)"/>
       </defs>
       <use xlink:href="#NotoSansEthiopic-Regular-12e8"/>
       <use xlink:href="#NotoSansEthiopic-Regular-1218" transform="translate(46.899994 0)"/>
       <use xlink:href="#NotoSansEthiopic-Regular-12a8" transform="translate(142.799988 0)"/>
       <use xlink:href="#NotoSansEthiopic-Regular-120b" transform="translate(207.599976 0)"/>
       <use xlink:href="#NotoSansEthiopic-Regular-12a8" transform="translate(264.499969 0)"/>
       <use xlink:href="#NotoSansEthiopic-Regular-12eb" transform="translate(329.299957 0)"/>
       <use xlink:href="#NotoSansEthiopic-Regular-20" transform="translate(377.599945 0)"/>
       <use xlink:href="#NotoSansEthiopic-Regular-1230" transform="translate(403.59993 0)"/>
       <use xlink:href="#NotoSansEthiopic-Regular-122b" transform="translate(465.399918 0)"/>
       <use xlink:href="#NotoSansEthiopic-Regular-12ca" transform="translate(531.799911 0)"/>
       <use xlink:href="#NotoSansEthiopic-Regular-1275" transform="translate(599.799896 0)"/>
       <use xlink:href="#NotoSansEthiopic-Regular-20" transform="translate(659.899887 0)"/>
       <use xlink:href="#NotoSansEthiopic-Regular-12a0" transform="translate(685.899872 0)"/>
       <use xlink:href="#NotoSansEthiopic-Regular-1263" transform="translate(741.19986 0)"/>
       <use xlink:href="#NotoSansEthiopic-Regular-120b" transform="translate(802.199844 0)"/>
       <use xlink:href="#NotoSansEthiopic-Regular-1275" transform="translate(859.099838 0)"/>
      </g>
     </g>
    </g>
    <g id="xtick_11">
     <g id="line2d_11">
      <path d="M 491.84969 150.503508 
L 491.84969 22.318125 
" clip-path="url(#pa65ee19d24)" style="fill: none; stroke: #cccccc; stroke-linecap: round"/>
     </g>
     <g id="text_11">
      <!-- አዋጅ መረጃ ማጣሪያ -->
      <g style="fill: #262626" transform="translate(431.632034 224.513744) rotate(-45) scale(0.11 -0.11)">
       <defs>
        <path id="NotoSansEthiopic-Regular-12cb" d="M 2042 0 
L 2042 1920 
Q 1773 1792 1427 1792 
Q 883 1792 563 2118 
Q 243 2445 243 3046 
Q 243 3750 652 4160 
Q 1062 4570 1805 4570 
L 3040 4570 
Q 3610 4570 3904 4275 
Q 4198 3981 4198 3507 
Q 4198 3168 4073 2899 
Q 3949 2630 3686 2476 
Q 3424 2323 3002 2323 
L 2624 2323 
L 2624 0 
L 2042 0 
z
M 1459 2246 
Q 1664 2246 1801 2304 
Q 1939 2362 2042 2451 
L 2042 4147 
L 1862 4147 
Q 1376 4147 1094 3862 
Q 813 3578 813 3046 
Q 813 2656 989 2451 
Q 1165 2246 1459 2246 
z
M 2624 2746 
L 2970 2746 
Q 3226 2746 3370 2854 
Q 3514 2963 3571 3129 
Q 3629 3296 3629 3475 
Q 3629 3635 3574 3788 
Q 3520 3942 3392 4044 
Q 3264 4147 3027 4147 
L 2624 4147 
L 2624 2746 
z
" transform="scale(0.015625)"/>
        <path id="NotoSansEthiopic-Regular-1305" d="M 96 0 
L 314 992 
L 1318 992 
Q 1101 1210 918 1562 
Q 736 1914 736 2432 
Q 736 2982 976 3324 
Q 1216 3667 1632 3782 
L 1632 4147 
L 922 4147 
Q 877 3968 733 3795 
Q 589 3622 384 3622 
L 230 3622 
L 397 4378 
L 230 5133 
L 384 5133 
Q 589 5133 733 4963 
Q 877 4794 922 4614 
L 2925 4614 
Q 2976 4794 3120 4963 
Q 3264 5133 3462 5133 
L 3616 5133 
L 3450 4378 
L 3616 3622 
L 3462 3622 
Q 3264 3622 3120 3795 
Q 2976 3968 2925 4147 
L 2214 4147 
L 2214 3827 
Q 2618 3789 2829 3577 
Q 3040 3366 3091 3085 
L 4077 3085 
L 4294 2093 
L 4166 2093 
Q 3974 2093 3824 2237 
Q 3674 2381 3603 2618 
L 3072 2618 
Q 3014 2387 2835 2208 
Q 2656 2029 2317 1926 
Q 1978 1824 1434 1824 
Q 1542 1587 1708 1385 
Q 1875 1184 2112 992 
L 3533 992 
L 3750 0 
L 3622 0 
Q 3430 0 3280 144 
Q 3130 288 3059 525 
L 787 525 
Q 723 288 569 144 
Q 416 0 224 0 
L 96 0 
z
M 1331 2278 
Q 1997 2285 2269 2429 
Q 2541 2573 2541 2912 
Q 2541 3155 2393 3276 
Q 2246 3398 2029 3398 
Q 1325 3398 1325 2419 
Q 1325 2400 1325 2355 
Q 1325 2310 1331 2278 
z
" transform="scale(0.015625)"/>
        <path id="NotoSansEthiopic-Regular-1228" d="M 3181 -525 
Q 2982 -525 2838 -352 
Q 2694 -179 2643 0 
L 1747 0 
L 1747 0 
Q 1024 13 672 339 
Q 320 666 320 1235 
Q 320 1619 461 1907 
Q 602 2195 883 2483 
Q 1165 2771 1587 3162 
Q 1971 3520 2131 3840 
Q 2291 4160 2291 4570 
L 2874 4570 
Q 2874 3987 2605 3564 
Q 2336 3142 1907 2752 
Q 1549 2426 1334 2186 
Q 1120 1946 1024 1734 
Q 928 1523 928 1267 
Q 928 1043 1005 860 
Q 1082 678 1270 572 
Q 1459 467 1792 467 
L 2643 467 
Q 2694 646 2838 816 
Q 2982 986 3181 986 
L 3334 986 
L 3168 230 
L 3334 -525 
L 3181 -525 
z
" transform="scale(0.015625)"/>
        <path id="NotoSansEthiopic-Regular-1303" d="M 96 474 
L 314 1466 
L 1843 1466 
Q 1523 1651 1347 1955 
Q 1171 2259 1171 2694 
Q 1171 3142 1401 3465 
Q 1632 3789 2086 3878 
L 2086 4192 
L 1030 4192 
Q 986 4013 842 3840 
Q 698 3667 493 3667 
L 339 3667 
L 506 4422 
L 339 5178 
L 493 5178 
Q 698 5178 842 5008 
Q 986 4838 1030 4659 
L 3539 4659 
Q 3590 4838 3734 5008 
Q 3878 5178 4077 5178 
L 4230 5178 
L 4064 4422 
L 4230 3667 
L 4077 3667 
Q 3878 3667 3734 3840 
Q 3590 4013 3539 4192 
L 2669 4192 
L 2669 3891 
Q 2970 3846 3136 3708 
Q 3302 3571 3372 3388 
Q 3443 3206 3443 3027 
Q 3443 2758 3296 2524 
Q 3149 2291 2838 2137 
Q 2528 1984 2029 1965 
Q 2387 1555 3123 1466 
L 4096 1466 
L 4096 0 
L 3514 0 
L 3514 998 
L 787 998 
Q 723 762 569 618 
Q 416 474 224 474 
L 96 474 
z
M 1760 2701 
Q 1760 2541 1798 2400 
Q 2349 2413 2611 2573 
Q 2874 2733 2874 3027 
Q 2874 3226 2749 3344 
Q 2624 3462 2394 3462 
Q 2080 3462 1920 3260 
Q 1760 3059 1760 2701 
z
" transform="scale(0.015625)"/>
        <path id="NotoSansEthiopic-Regular-122a" d="M 1792 0 
Q 1043 0 681 329 
Q 320 659 320 1235 
Q 320 1619 461 1907 
Q 602 2195 883 2483 
Q 1165 2771 1587 3162 
Q 1971 3520 2131 3840 
Q 2291 4160 2291 4570 
L 2874 4570 
Q 2874 3987 2605 3564 
Q 2336 3142 1907 2752 
Q 1549 2426 1334 2186 
Q 1120 1946 1024 1734 
Q 928 1523 928 1267 
Q 928 1043 1005 860 
Q 1082 678 1270 572 
Q 1459 467 1792 467 
Q 2304 467 2534 742 
Q 2765 1018 2765 1549 
L 2765 1702 
L 3354 1702 
L 3354 1542 
Q 3354 826 2982 413 
Q 2611 0 1792 0 
z
" transform="scale(0.015625)"/>
       </defs>
       <use xlink:href="#NotoSansEthiopic-Regular-12a0"/>
       <use xlink:href="#NotoSansEthiopic-Regular-12cb" transform="translate(55.299988 0)"/>
       <use xlink:href="#NotoSansEthiopic-Regular-1305" transform="translate(123.299973 0)"/>
       <use xlink:href="#NotoSansEthiopic-Regular-20" transform="translate(191.899963 0)"/>
       <use xlink:href="#NotoSansEthiopic-Regular-1218" transform="translate(217.899948 0)"/>
       <use xlink:href="#NotoSansEthiopic-Regular-1228" transform="translate(313.799942 0)"/>
       <use xlink:href="#NotoSansEthiopic-Regular-1303" transform="translate(367.399933 0)"/>
       <use xlink:href="#NotoSansEthiopic-Regular-20" transform="translate(436.999924 0)"/>
       <use xlink:href="#NotoSansEthiopic-Regular-121b" transform="translate(462.999908 0)"/>
       <use xlink:href="#NotoSansEthiopic-Regular-1323" transform="translate(552.19989 0)"/>
       <use xlink:href="#NotoSansEthiopic-Regular-122a" transform="translate(647.699875 0)"/>
       <use xlink:href="#NotoSansEthiopic-Regular-12eb" transform="translate(705.099869 0)"/>
      </g>
     </g>
    </g>
    <g id="xtick_12">
     <g id="line2d_12">
      <path d="M 532.617503 150.503508 
L 532.617503 22.318125 
" clip-path="url(#pa65ee19d24)" style="fill: none; stroke: #cccccc; stroke-linecap: round"/>
     </g>
     <g id="text_12">
      <!-- የፌደራል ፖሊስ ኮሚሽን -->
      <g style="fill: #262626" transform="translate(465.452965 231.460626) rotate(-45) scale(0.11 -0.11)">
       <defs>
        <path id="NotoSansEthiopic-Regular-134c" d="M 3642 0 
Q 3411 0 3241 51 
Q 3072 102 2957 192 
L 2106 192 
Q 1824 0 1427 0 
Q 845 0 582 307 
Q 320 614 320 1082 
Q 320 1478 457 1747 
Q 595 2016 822 2208 
Q 1050 2400 1312 2560 
Q 1677 2784 1901 2979 
Q 2125 3174 2253 3398 
Q 2381 3622 2441 3916 
Q 2502 4211 2534 4634 
L 3117 4634 
Q 3091 4045 2956 3622 
Q 2822 3200 2537 2886 
Q 2253 2573 1760 2304 
Q 2112 2182 2326 1891 
Q 2541 1600 2541 1126 
Q 2541 819 2432 582 
L 2733 582 
Q 2720 659 2720 749 
Q 2720 1120 2976 1318 
Q 3232 1517 3642 1517 
Q 4109 1517 4336 1312 
Q 4563 1107 4563 768 
Q 4563 454 4326 227 
Q 4090 0 3642 0 
z
M 1318 1997 
Q 890 1722 890 1126 
Q 890 774 1030 604 
Q 1171 435 1414 435 
Q 1696 435 1837 627 
Q 1978 819 1978 1139 
Q 1978 1517 1789 1731 
Q 1600 1946 1318 1997 
z
M 3642 422 
Q 3840 422 3936 518 
Q 4032 614 4032 768 
Q 4032 915 3936 1011 
Q 3840 1107 3642 1107 
Q 3450 1107 3350 1011 
Q 3251 915 3251 768 
Q 3251 614 3347 518 
Q 3443 422 3642 422 
z
" transform="scale(0.015625)"/>
        <path id="NotoSansEthiopic-Regular-1356" d="M 320 0 
L 320 307 
Q 320 774 416 1113 
Q 512 1453 733 1750 
Q 954 2048 1318 2394 
Q 1651 2707 1824 2969 
Q 1997 3232 2067 3501 
Q 2138 3770 2150 4102 
L 1235 4102 
Q 1171 3866 1017 3722 
Q 864 3578 672 3578 
L 544 3578 
L 762 4570 
L 3981 4570 
L 4198 3578 
L 4070 3578 
Q 3878 3578 3728 3722 
Q 3578 3866 3507 4102 
L 2726 4102 
Q 2714 3642 2608 3296 
Q 2502 2950 2288 2649 
Q 2074 2349 1722 2016 
Q 1382 1696 1206 1433 
Q 1030 1171 966 896 
Q 902 621 902 262 
L 902 0 
L 320 0 
z
" transform="scale(0.015625)"/>
        <path id="NotoSansEthiopic-Regular-12ae" d="M 1414 0 
L 832 0 
L 832 2298 
Q 832 2816 973 3168 
Q 659 3290 489 3523 
Q 320 3757 320 4218 
L 320 4864 
L 902 4864 
L 902 4237 
Q 902 3987 998 3824 
Q 1094 3661 1254 3597 
Q 1600 3923 2221 3923 
Q 2944 3923 3289 3481 
Q 3635 3040 3635 2310 
L 3635 1536 
L 3053 1536 
L 3053 2259 
Q 3053 2784 2877 3097 
Q 2701 3411 2221 3411 
Q 1786 3411 1600 3113 
Q 1414 2816 1414 2266 
L 1414 0 
z
" transform="scale(0.015625)"/>
        <path id="NotoSansEthiopic-Regular-121a" d="M 3686 0 
L 3686 403 
L 4474 2317 
L 4134 2317 
Q 3686 2317 3446 2537 
Q 3206 2758 3206 3187 
Q 3206 3642 3315 4147 
L 2624 4147 
L 2624 2304 
Q 2406 2080 2105 1936 
Q 1805 1792 1427 1792 
Q 883 1792 563 2118 
Q 243 2445 243 3046 
Q 243 3750 662 4160 
Q 1082 4570 1824 4570 
L 4358 4570 
Q 5466 4570 5466 3667 
Q 5466 3424 5363 3091 
Q 5261 2758 5133 2458 
L 4307 467 
L 5350 467 
Q 5402 646 5546 816 
Q 5690 986 5888 986 
L 6042 986 
L 5875 230 
L 6042 -525 
L 5888 -525 
Q 5690 -525 5546 -352 
Q 5402 -179 5350 0 
L 3686 0 
z
M 1459 2246 
Q 1664 2246 1798 2304 
Q 1933 2362 2042 2451 
L 2042 4147 
L 1862 4147 
Q 1376 4147 1094 3862 
Q 813 3578 813 3046 
Q 813 2656 989 2451 
Q 1165 2246 1459 2246 
z
M 4461 2739 
L 4646 2739 
L 4787 3091 
Q 4838 3213 4873 3357 
Q 4909 3501 4909 3642 
Q 4909 3885 4749 4016 
Q 4589 4147 4307 4147 
L 3878 4147 
Q 3821 3866 3795 3654 
Q 3770 3443 3770 3251 
Q 3770 2976 3920 2857 
Q 4070 2739 4461 2739 
z
" transform="scale(0.015625)"/>
        <path id="NotoSansEthiopic-Regular-123d" d="M 576 0 
L 576 2310 
Q 576 2950 838 3369 
Q 1101 3789 1651 3891 
L 1363 4480 
L 787 4480 
Q 742 4301 598 4128 
Q 454 3955 250 3955 
L 96 3955 
L 262 4710 
L 96 5466 
L 250 5466 
Q 454 5466 598 5296 
Q 742 5126 787 4947 
L 2790 4947 
Q 2842 5126 2986 5296 
Q 3130 5466 3328 5466 
L 3482 5466 
L 3315 4710 
L 3482 3955 
L 3328 3955 
Q 3130 3955 2986 4128 
Q 2842 4301 2790 4480 
L 1984 4480 
L 2266 3904 
Q 2854 3827 3116 3417 
Q 3379 3008 3379 2298 
L 3379 0 
L 2797 0 
L 2797 2266 
Q 2797 2816 2611 3113 
Q 2426 3411 1990 3411 
Q 1510 3411 1334 3097 
Q 1158 2784 1158 2259 
L 1158 0 
L 576 0 
z
" transform="scale(0.015625)"/>
       </defs>
       <use xlink:href="#NotoSansEthiopic-Regular-12e8"/>
       <use xlink:href="#NotoSansEthiopic-Regular-134c" transform="translate(46.899994 0)"/>
       <use xlink:href="#NotoSansEthiopic-Regular-12f0" transform="translate(120.699982 0)"/>
       <use xlink:href="#NotoSansEthiopic-Regular-122b" transform="translate(180.799973 0)"/>
       <use xlink:href="#NotoSansEthiopic-Regular-120d" transform="translate(247.199966 0)"/>
       <use xlink:href="#NotoSansEthiopic-Regular-20" transform="translate(313.59996 0)"/>
       <use xlink:href="#NotoSansEthiopic-Regular-1356" transform="translate(339.599945 0)"/>
       <use xlink:href="#NotoSansEthiopic-Regular-120a" transform="translate(406.699936 0)"/>
       <use xlink:href="#NotoSansEthiopic-Regular-1235" transform="translate(481.999924 0)"/>
       <use xlink:href="#NotoSansEthiopic-Regular-20" transform="translate(543.799911 0)"/>
       <use xlink:href="#NotoSansEthiopic-Regular-12ae" transform="translate(569.799896 0)"/>
       <use xlink:href="#NotoSansEthiopic-Regular-121a" transform="translate(634.599884 0)"/>
       <use xlink:href="#NotoSansEthiopic-Regular-123d" transform="translate(730.499878 0)"/>
       <use xlink:href="#NotoSansEthiopic-Regular-1295" transform="translate(793.899872 0)"/>
      </g>
     </g>
    </g>
    <g id="xtick_13">
     <g id="line2d_13">
      <path d="M 573.385316 150.503508 
L 573.385316 22.318125 
" clip-path="url(#pa65ee19d24)" style="fill: none; stroke: #cccccc; stroke-linecap: round"/>
     </g>
     <g id="text_13">
      <!-- የአስቸኳይ አዋጅ መረጃ -->
      <g style="fill: #262626" transform="translate(507.411812 230.269593) rotate(-45) scale(0.11 -0.11)">
       <defs>
        <path id="NotoSansEthiopic-Regular-1278" d="M 1677 0 
L 1677 2963 
L 832 2963 
Q 768 2726 614 2582 
Q 461 2438 269 2438 
L 141 2438 
L 358 3430 
L 1677 3430 
L 1677 4480 
L 966 4480 
Q 922 4301 778 4128 
Q 634 3955 429 3955 
L 275 3955 
L 442 4710 
L 275 5466 
L 429 5466 
Q 634 5466 778 5296 
Q 922 5126 966 4947 
L 2970 4947 
Q 3021 5126 3165 5296 
Q 3309 5466 3507 5466 
L 3661 5466 
L 3494 4710 
L 3661 3955 
L 3507 3955 
Q 3309 3955 3165 4128 
Q 3021 4301 2970 4480 
L 2259 4480 
L 2259 3430 
L 3578 3430 
L 3795 2438 
L 3667 2438 
Q 3475 2438 3324 2582 
Q 3174 2726 3104 2963 
L 2259 2963 
L 2259 0 
L 1677 0 
z
" transform="scale(0.015625)"/>
       </defs>
       <use xlink:href="#NotoSansEthiopic-Regular-12e8"/>
       <use xlink:href="#NotoSansEthiopic-Regular-12a0" transform="translate(46.899994 0)"/>
       <use xlink:href="#NotoSansEthiopic-Regular-1235" transform="translate(102.199982 0)"/>
       <use xlink:href="#NotoSansEthiopic-Regular-1278" transform="translate(163.999969 0)"/>
       <use xlink:href="#NotoSansEthiopic-Regular-12b3" transform="translate(225.499954 0)"/>
       <use xlink:href="#NotoSansEthiopic-Regular-12ed" transform="translate(293.699936 0)"/>
       <use xlink:href="#NotoSansEthiopic-Regular-20" transform="translate(364.399918 0)"/>
       <use xlink:href="#NotoSansEthiopic-Regular-12a0" transform="translate(390.399902 0)"/>
       <use xlink:href="#NotoSansEthiopic-Regular-12cb" transform="translate(445.69989 0)"/>
       <use xlink:href="#NotoSansEthiopic-Regular-1305" transform="translate(513.699875 0)"/>
       <use xlink:href="#NotoSansEthiopic-Regular-20" transform="translate(582.299866 0)"/>
       <use xlink:href="#NotoSansEthiopic-Regular-1218" transform="translate(608.29985 0)"/>
       <use xlink:href="#NotoSansEthiopic-Regular-1228" transform="translate(704.199844 0)"/>
       <use xlink:href="#NotoSansEthiopic-Regular-1303" transform="translate(757.799835 0)"/>
      </g>
     </g>
    </g>
    <g id="xtick_14">
     <g id="line2d_14">
      <path d="M 614.15313 150.503508 
L 614.15313 22.318125 
" clip-path="url(#pa65ee19d24)" style="fill: none; stroke: #cccccc; stroke-linecap: round"/>
     </g>
     <g id="text_14">
      <!-- ቻናሌን ሊንክ ይቀላቀሉ -->
      <g style="fill: #262626" transform="translate(549.968605 228.480613) rotate(-45) scale(0.11 -0.11)">
       <defs>
        <path id="NotoSansEthiopic-Regular-120c" d="M 275 0 
Q 365 915 486 1545 
Q 608 2176 790 2585 
Q 973 2995 1241 3228 
Q 1510 3462 1888 3578 
L 1581 4570 
L 2202 4570 
L 3091 1690 
L 3808 1690 
Q 4339 1690 4582 1482 
Q 4826 1274 4826 896 
Q 4826 499 4534 249 
Q 4243 0 3642 0 
L 3008 0 
L 2042 3110 
Q 1798 3053 1606 2883 
Q 1414 2714 1267 2368 
Q 1120 2022 1014 1449 
Q 909 877 838 0 
L 275 0 
z
M 3776 1254 
L 3226 1254 
L 3482 422 
L 3661 422 
Q 4000 422 4128 550 
Q 4256 678 4256 877 
Q 4256 1056 4144 1155 
Q 4032 1254 3776 1254 
z
" transform="scale(0.015625)"/>
       </defs>
       <use xlink:href="#NotoSansEthiopic-Regular-127b"/>
       <use xlink:href="#NotoSansEthiopic-Regular-1293" transform="translate(61.899994 0)"/>
       <use xlink:href="#NotoSansEthiopic-Regular-120c" transform="translate(112.999985 0)"/>
       <use xlink:href="#NotoSansEthiopic-Regular-1295" transform="translate(190.199966 0)"/>
       <use xlink:href="#NotoSansEthiopic-Regular-20" transform="translate(238.999954 0)"/>
       <use xlink:href="#NotoSansEthiopic-Regular-120a" transform="translate(264.999939 0)"/>
       <use xlink:href="#NotoSansEthiopic-Regular-1295" transform="translate(340.299927 0)"/>
       <use xlink:href="#NotoSansEthiopic-Regular-12ad" transform="translate(389.099915 0)"/>
       <use xlink:href="#NotoSansEthiopic-Regular-20" transform="translate(453.899902 0)"/>
       <use xlink:href="#NotoSansEthiopic-Regular-12ed" transform="translate(479.899887 0)"/>
       <use xlink:href="#NotoSansEthiopic-Regular-1240" transform="translate(550.599869 0)"/>
       <use xlink:href="#NotoSansEthiopic-Regular-120b" transform="translate(615.69986 0)"/>
       <use xlink:href="#NotoSansEthiopic-Regular-1240" transform="translate(672.599854 0)"/>
       <use xlink:href="#NotoSansEthiopic-Regular-1209" transform="translate(737.699844 0)"/>
      </g>
     </g>
    </g>
    <g id="xtick_15">
     <g id="line2d_15">
      <path d="M 654.920943 150.503508 
L 654.920943 22.318125 
" clip-path="url(#pa65ee19d24)" style="fill: none; stroke: #cccccc; stroke-linecap: round"/>
     </g>
     <g id="text_15">
      <!-- የዘር ማጥፋት ወንጀል -->
      <g style="fill: #262626" transform="translate(593.643511 225.57352) rotate(-45) scale(0.11 -0.11)">
       <defs>
        <path id="NotoSansEthiopic-Regular-12d8" d="M 576 0 
L 576 4570 
L 1158 4570 
L 1158 2637 
L 2355 2637 
L 2355 4570 
L 2938 4570 
L 2938 0 
L 2355 0 
L 2355 2131 
L 1158 2131 
L 1158 0 
L 576 0 
z
" transform="scale(0.015625)"/>
        <path id="NotoSansEthiopic-Regular-1325" d="M 3155 0 
L 3155 2362 
L 2586 2362 
L 2586 4058 
L 2458 4058 
Q 1741 4058 1449 3683 
Q 1158 3309 1158 2528 
L 1158 1498 
L 576 1498 
L 576 2592 
Q 576 3578 1040 4074 
Q 1504 4570 2470 4570 
L 3168 4570 
L 3168 4186 
Q 3258 4262 3408 4352 
Q 3558 4442 3792 4506 
Q 4026 4570 4358 4570 
Q 5030 4570 5401 4141 
Q 5773 3712 5773 2950 
L 5773 1498 
L 5190 1498 
L 5190 2771 
Q 5190 3373 4966 3715 
Q 4742 4058 4173 4058 
Q 3782 4058 3532 3939 
Q 3283 3821 3168 3718 
L 3168 2810 
L 3738 2810 
L 3738 0 
L 3155 0 
z
" transform="scale(0.015625)"/>
        <path id="NotoSansEthiopic-Regular-134b" d="M 1869 0 
L 1869 1331 
L 1402 1331 
Q 838 1331 579 1638 
Q 320 1946 320 2445 
Q 320 2957 573 3254 
Q 826 3552 1325 3686 
Q 1818 3821 2138 4102 
Q 2458 4384 2509 4870 
L 3110 4870 
Q 3053 4320 2729 3990 
Q 2406 3661 1914 3494 
Q 2150 3405 2300 3165 
Q 2451 2925 2451 2509 
L 2451 1798 
L 3699 1798 
L 3917 806 
L 3789 806 
Q 3597 806 3446 950 
Q 3296 1094 3226 1331 
L 2451 1331 
L 2451 0 
L 1869 0 
z
M 1510 1798 
L 1869 1798 
L 1869 2458 
Q 1869 2810 1753 2979 
Q 1638 3149 1382 3149 
Q 1165 3149 1027 2976 
Q 890 2803 890 2445 
Q 890 2093 1056 1945 
Q 1222 1798 1510 1798 
z
" transform="scale(0.015625)"/>
        <path id="NotoSansEthiopic-Regular-12c8" d="M 1658 -64 
Q 1018 -64 733 464 
Q 448 992 448 1997 
Q 448 2765 637 3344 
Q 826 3923 1197 4246 
Q 1568 4570 2106 4570 
L 3123 4570 
Q 3782 4570 4089 4061 
Q 4397 3552 4397 2541 
Q 4397 1536 4080 1001 
Q 3763 467 3123 467 
L 2694 467 
Q 2502 230 2249 83 
Q 1997 -64 1658 -64 
z
M 1683 403 
Q 2029 403 2246 723 
L 2246 4122 
L 2157 4122 
Q 1613 4122 1315 3597 
Q 1018 3072 1018 2016 
Q 1018 1171 1197 787 
Q 1376 403 1683 403 
z
M 2829 928 
L 3040 928 
Q 3347 928 3520 1126 
Q 3693 1325 3763 1686 
Q 3834 2048 3834 2547 
Q 3834 3008 3760 3363 
Q 3686 3718 3520 3920 
Q 3354 4122 3072 4122 
L 2829 4122 
L 2829 928 
z
" transform="scale(0.015625)"/>
        <path id="NotoSansEthiopic-Regular-1300" d="M 96 0 
L 314 992 
L 1318 992 
Q 1101 1210 918 1562 
Q 736 1914 736 2432 
Q 736 2982 976 3324 
Q 1216 3667 1632 3782 
L 1632 4147 
L 922 4147 
Q 877 3968 733 3795 
Q 589 3622 384 3622 
L 230 3622 
L 397 4378 
L 230 5133 
L 384 5133 
Q 589 5133 733 4963 
Q 877 4794 922 4614 
L 2925 4614 
Q 2976 4794 3120 4963 
Q 3264 5133 3462 5133 
L 3616 5133 
L 3450 4378 
L 3616 3622 
L 3462 3622 
Q 3264 3622 3120 3795 
Q 2976 3968 2925 4147 
L 2214 4147 
L 2214 3827 
Q 2682 3782 2893 3513 
Q 3104 3245 3104 2906 
Q 3104 2605 2960 2358 
Q 2816 2112 2451 1968 
Q 2086 1824 1434 1824 
Q 1542 1587 1708 1385 
Q 1875 1184 2112 992 
L 3533 992 
L 3750 0 
L 3622 0 
Q 3430 0 3280 144 
Q 3130 288 3059 525 
L 787 525 
Q 723 288 569 144 
Q 416 0 224 0 
L 96 0 
z
M 1331 2278 
Q 1997 2285 2269 2429 
Q 2541 2573 2541 2912 
Q 2541 3155 2393 3276 
Q 2246 3398 2029 3398 
Q 1325 3398 1325 2419 
Q 1325 2400 1325 2355 
Q 1325 2310 1331 2278 
z
" transform="scale(0.015625)"/>
       </defs>
       <use xlink:href="#NotoSansEthiopic-Regular-12e8"/>
       <use xlink:href="#NotoSansEthiopic-Regular-12d8" transform="translate(46.899994 0)"/>
       <use xlink:href="#NotoSansEthiopic-Regular-122d" transform="translate(101.799988 0)"/>
       <use xlink:href="#NotoSansEthiopic-Regular-20" transform="translate(152.799973 0)"/>
       <use xlink:href="#NotoSansEthiopic-Regular-121b" transform="translate(178.799957 0)"/>
       <use xlink:href="#NotoSansEthiopic-Regular-1325" transform="translate(267.999939 0)"/>
       <use xlink:href="#NotoSansEthiopic-Regular-134b" transform="translate(367.199921 0)"/>
       <use xlink:href="#NotoSansEthiopic-Regular-1275" transform="translate(429.899918 0)"/>
       <use xlink:href="#NotoSansEthiopic-Regular-20" transform="translate(489.999908 0)"/>
       <use xlink:href="#NotoSansEthiopic-Regular-12c8" transform="translate(515.999893 0)"/>
       <use xlink:href="#NotoSansEthiopic-Regular-1295" transform="translate(591.699875 0)"/>
       <use xlink:href="#NotoSansEthiopic-Regular-1300" transform="translate(640.499863 0)"/>
       <use xlink:href="#NotoSansEthiopic-Regular-120d" transform="translate(700.599854 0)"/>
      </g>
     </g>
    </g>
   </g>
   <g id="matplotlib.axis_2">
    <g id="ytick_1">
     <g id="line2d_16">
      <path d="M 37.69625 150.503508 
L 701.39625 150.503508 
" clip-path="url(#pa65ee19d24)" style="fill: none; stroke: #cccccc; stroke-linecap: round"/>
     </g>
     <g id="text_16">
      <!-- 0 -->
      <g style="fill: #262626" transform="translate(21.1975 154.682649) scale(0.11 -0.11)">
       <defs>
        <path id="DejaVuSans-30" d="M 2034 4250 
Q 1547 4250 1301 3770 
Q 1056 3291 1056 2328 
Q 1056 1369 1301 889 
Q 1547 409 2034 409 
Q 2525 409 2770 889 
Q 3016 1369 3016 2328 
Q 3016 3291 2770 3770 
Q 2525 4250 2034 4250 
z
M 2034 4750 
Q 2819 4750 3233 4129 
Q 3647 3509 3647 2328 
Q 3647 1150 3233 529 
Q 2819 -91 2034 -91 
Q 1250 -91 836 529 
Q 422 1150 422 2328 
Q 422 3509 836 4129 
Q 1250 4750 2034 4750 
z
" transform="scale(0.015625)"/>
       </defs>
       <use xlink:href="#DejaVuSans-30"/>
      </g>
     </g>
    </g>
    <g id="ytick_2">
     <g id="line2d_17">
      <path d="M 37.69625 105.204318 
L 701.39625 105.204318 
" clip-path="url(#pa65ee19d24)" style="fill: none; stroke: #cccccc; stroke-linecap: round"/>
     </g>
     <g id="text_17">
      <!-- 200 -->
      <g style="fill: #262626" transform="translate(7.2 109.383459) scale(0.11 -0.11)">
       <defs>
        <path id="DejaVuSans-32" d="M 1228 531 
L 3431 531 
L 3431 0 
L 469 0 
L 469 531 
Q 828 903 1448 1529 
Q 2069 2156 2228 2338 
Q 2531 2678 2651 2914 
Q 2772 3150 2772 3378 
Q 2772 3750 2511 3984 
Q 2250 4219 1831 4219 
Q 1534 4219 1204 4116 
Q 875 4013 500 3803 
L 500 4441 
Q 881 4594 1212 4672 
Q 1544 4750 1819 4750 
Q 2544 4750 2975 4387 
Q 3406 4025 3406 3419 
Q 3406 3131 3298 2873 
Q 3191 2616 2906 2266 
Q 2828 2175 2409 1742 
Q 1991 1309 1228 531 
z
" transform="scale(0.015625)"/>
       </defs>
       <use xlink:href="#DejaVuSans-32"/>
       <use xlink:href="#DejaVuSans-30" transform="translate(63.623047 0)"/>
       <use xlink:href="#DejaVuSans-30" transform="translate(127.246094 0)"/>
      </g>
     </g>
    </g>
    <g id="ytick_3">
     <g id="line2d_18">
      <path d="M 37.69625 59.905128 
L 701.39625 59.905128 
" clip-path="url(#pa65ee19d24)" style="fill: none; stroke: #cccccc; stroke-linecap: round"/>
     </g>
     <g id="text_18">
      <!-- 400 -->
      <g style="fill: #262626" transform="translate(7.2 64.084269) scale(0.11 -0.11)">
       <defs>
        <path id="DejaVuSans-34" d="M 2419 4116 
L 825 1625 
L 2419 1625 
L 2419 4116 
z
M 2253 4666 
L 3047 4666 
L 3047 1625 
L 3713 1625 
L 3713 1100 
L 3047 1100 
L 3047 0 
L 2419 0 
L 2419 1100 
L 313 1100 
L 313 1709 
L 2253 4666 
z
" transform="scale(0.015625)"/>
       </defs>
       <use xlink:href="#DejaVuSans-34"/>
       <use xlink:href="#DejaVuSans-30" transform="translate(63.623047 0)"/>
       <use xlink:href="#DejaVuSans-30" transform="translate(127.246094 0)"/>
      </g>
     </g>
    </g>
   </g>
   <g id="patch_3">
    <path d="M 67.864432 150.503508 
L 100.478682 150.503508 
L 100.478682 28.422191 
L 67.864432 28.422191 
z
" clip-path="url(#pa65ee19d24)" style="fill: #4c72b0; stroke: #ffffff; stroke-linejoin: miter"/>
   </g>
   <g id="patch_4">
    <path d="M 108.632245 150.503508 
L 141.246496 150.503508 
L 141.246496 124.003482 
L 108.632245 124.003482 
z
" clip-path="url(#pa65ee19d24)" style="fill: #4c72b0; stroke: #ffffff; stroke-linejoin: miter"/>
   </g>
   <g id="patch_5">
    <path d="M 149.400058 150.503508 
L 182.014309 150.503508 
L 182.014309 126.721433 
L 149.400058 126.721433 
z
" clip-path="url(#pa65ee19d24)" style="fill: #4c72b0; stroke: #ffffff; stroke-linejoin: miter"/>
   </g>
   <g id="patch_6">
    <path d="M 190.167872 150.503508 
L 222.782122 150.503508 
L 222.782122 133.06332 
L 190.167872 133.06332 
z
" clip-path="url(#pa65ee19d24)" style="fill: #4c72b0; stroke: #ffffff; stroke-linejoin: miter"/>
   </g>
   <g id="patch_7">
    <path d="M 230.935685 150.503508 
L 263.549936 150.503508 
L 263.549936 136.913751 
L 230.935685 136.913751 
z
" clip-path="url(#pa65ee19d24)" style="fill: #4c72b0; stroke: #ffffff; stroke-linejoin: miter"/>
   </g>
   <g id="patch_8">
    <path d="M 271.703498 150.503508 
L 304.317749 150.503508 
L 304.317749 138.499223 
L 271.703498 138.499223 
z
" clip-path="url(#pa65ee19d24)" style="fill: #4c72b0; stroke: #ffffff; stroke-linejoin: miter"/>
   </g>
   <g id="patch_9">
    <path d="M 312.471311 150.503508 
L 345.085562 150.503508 
L 345.085562 139.178711 
L 312.471311 139.178711 
z
" clip-path="url(#pa65ee19d24)" style="fill: #4c72b0; stroke: #ffffff; stroke-linejoin: miter"/>
   </g>
   <g id="patch_10">
    <path d="M 353.239125 150.503508 
L 385.853375 150.503508 
L 385.853375 139.631703 
L 353.239125 139.631703 
z
" clip-path="url(#pa65ee19d24)" style="fill: #4c72b0; stroke: #ffffff; stroke-linejoin: miter"/>
   </g>
   <g id="patch_11">
    <path d="M 394.006938 150.503508 
L 426.621189 150.503508 
L 426.621189 139.631703 
L 394.006938 139.631703 
z
" clip-path="url(#pa65ee19d24)" style="fill: #4c72b0; stroke: #ffffff; stroke-linejoin: miter"/>
   </g>
   <g id="patch_12">
    <path d="M 434.774751 150.503508 
L 467.389002 150.503508 
L 467.389002 140.084695 
L 434.774751 140.084695 
z
" clip-path="url(#pa65ee19d24)" style="fill: #4c72b0; stroke: #ffffff; stroke-linejoin: miter"/>
   </g>
   <g id="patch_13">
    <path d="M 475.542564 150.503508 
L 508.156815 150.503508 
L 508.156815 141.217174 
L 475.542564 141.217174 
z
" clip-path="url(#pa65ee19d24)" style="fill: #4c72b0; stroke: #ffffff; stroke-linejoin: miter"/>
   </g>
   <g id="patch_14">
    <path d="M 516.310378 150.503508 
L 548.924628 150.503508 
L 548.924628 141.44367 
L 516.310378 141.44367 
z
" clip-path="url(#pa65ee19d24)" style="fill: #4c72b0; stroke: #ffffff; stroke-linejoin: miter"/>
   </g>
   <g id="patch_15">
    <path d="M 557.078191 150.503508 
L 589.692442 150.503508 
L 589.692442 141.44367 
L 557.078191 141.44367 
z
" clip-path="url(#pa65ee19d24)" style="fill: #4c72b0; stroke: #ffffff; stroke-linejoin: miter"/>
   </g>
   <g id="patch_16">
    <path d="M 597.846004 150.503508 
L 630.460255 150.503508 
L 630.460255 141.44367 
L 597.846004 141.44367 
z
" clip-path="url(#pa65ee19d24)" style="fill: #4c72b0; stroke: #ffffff; stroke-linejoin: miter"/>
   </g>
   <g id="patch_17">
    <path d="M 638.613818 150.503508 
L 671.228068 150.503508 
L 671.228068 141.670166 
L 638.613818 141.670166 
z
" clip-path="url(#pa65ee19d24)" style="fill: #4c72b0; stroke: #ffffff; stroke-linejoin: miter"/>
   </g>
   <g id="patch_18">
    <path d="M 37.69625 150.503508 
L 37.69625 22.318125 
" style="fill: none; stroke: #cccccc; stroke-width: 1.25; stroke-linejoin: miter; stroke-linecap: square"/>
   </g>
   <g id="patch_19">
    <path d="M 701.39625 150.503508 
L 701.39625 22.318125 
" style="fill: none; stroke: #cccccc; stroke-width: 1.25; stroke-linejoin: miter; stroke-linecap: square"/>
   </g>
   <g id="patch_20">
    <path d="M 37.69625 150.503508 
L 701.39625 150.503508 
" style="fill: none; stroke: #cccccc; stroke-width: 1.25; stroke-linejoin: miter; stroke-linecap: square"/>
   </g>
   <g id="patch_21">
    <path d="M 37.69625 22.318125 
L 701.39625 22.318125 
" style="fill: none; stroke: #cccccc; stroke-width: 1.25; stroke-linejoin: miter; stroke-linecap: square"/>
   </g>
   <g id="text_19">
    <!-- Top 15 3-3-grams for normal -->
    <g style="fill: #262626" transform="translate(285.850938 16.318125) scale(0.12 -0.12)">
     <defs>
      <path id="DejaVuSans-54" d="M -19 4666 
L 3928 4666 
L 3928 4134 
L 2272 4134 
L 2272 0 
L 1638 0 
L 1638 4134 
L -19 4134 
L -19 4666 
z
" transform="scale(0.015625)"/>
      <path id="DejaVuSans-6f" d="M 1959 3097 
Q 1497 3097 1228 2736 
Q 959 2375 959 1747 
Q 959 1119 1226 758 
Q 1494 397 1959 397 
Q 2419 397 2687 759 
Q 2956 1122 2956 1747 
Q 2956 2369 2687 2733 
Q 2419 3097 1959 3097 
z
M 1959 3584 
Q 2709 3584 3137 3096 
Q 3566 2609 3566 1747 
Q 3566 888 3137 398 
Q 2709 -91 1959 -91 
Q 1206 -91 779 398 
Q 353 888 353 1747 
Q 353 2609 779 3096 
Q 1206 3584 1959 3584 
z
" transform="scale(0.015625)"/>
      <path id="DejaVuSans-70" d="M 1159 525 
L 1159 -1331 
L 581 -1331 
L 581 3500 
L 1159 3500 
L 1159 2969 
Q 1341 3281 1617 3432 
Q 1894 3584 2278 3584 
Q 2916 3584 3314 3078 
Q 3713 2572 3713 1747 
Q 3713 922 3314 415 
Q 2916 -91 2278 -91 
Q 1894 -91 1617 61 
Q 1341 213 1159 525 
z
M 3116 1747 
Q 3116 2381 2855 2742 
Q 2594 3103 2138 3103 
Q 1681 3103 1420 2742 
Q 1159 2381 1159 1747 
Q 1159 1113 1420 752 
Q 1681 391 2138 391 
Q 2594 391 2855 752 
Q 3116 1113 3116 1747 
z
" transform="scale(0.015625)"/>
      <path id="DejaVuSans-31" d="M 794 531 
L 1825 531 
L 1825 4091 
L 703 3866 
L 703 4441 
L 1819 4666 
L 2450 4666 
L 2450 531 
L 3481 531 
L 3481 0 
L 794 0 
L 794 531 
z
" transform="scale(0.015625)"/>
      <path id="DejaVuSans-35" d="M 691 4666 
L 3169 4666 
L 3169 4134 
L 1269 4134 
L 1269 2991 
Q 1406 3038 1543 3061 
Q 1681 3084 1819 3084 
Q 2600 3084 3056 2656 
Q 3513 2228 3513 1497 
Q 3513 744 3044 326 
Q 2575 -91 1722 -91 
Q 1428 -91 1123 -41 
Q 819 9 494 109 
L 494 744 
Q 775 591 1075 516 
Q 1375 441 1709 441 
Q 2250 441 2565 725 
Q 2881 1009 2881 1497 
Q 2881 1984 2565 2268 
Q 2250 2553 1709 2553 
Q 1456 2553 1204 2497 
Q 953 2441 691 2322 
L 691 4666 
z
" transform="scale(0.015625)"/>
      <path id="DejaVuSans-33" d="M 2597 2516 
Q 3050 2419 3304 2112 
Q 3559 1806 3559 1356 
Q 3559 666 3084 287 
Q 2609 -91 1734 -91 
Q 1441 -91 1130 -33 
Q 819 25 488 141 
L 488 750 
Q 750 597 1062 519 
Q 1375 441 1716 441 
Q 2309 441 2620 675 
Q 2931 909 2931 1356 
Q 2931 1769 2642 2001 
Q 2353 2234 1838 2234 
L 1294 2234 
L 1294 2753 
L 1863 2753 
Q 2328 2753 2575 2939 
Q 2822 3125 2822 3475 
Q 2822 3834 2567 4026 
Q 2313 4219 1838 4219 
Q 1578 4219 1281 4162 
Q 984 4106 628 3988 
L 628 4550 
Q 988 4650 1302 4700 
Q 1616 4750 1894 4750 
Q 2613 4750 3031 4423 
Q 3450 4097 3450 3541 
Q 3450 3153 3228 2886 
Q 3006 2619 2597 2516 
z
" transform="scale(0.015625)"/>
      <path id="NotoSansEthiopic-Regular-2d" d="M 256 1466 
L 256 1965 
L 1805 1965 
L 1805 1466 
L 256 1466 
z
" transform="scale(0.015625)"/>
      <path id="DejaVuSans-67" d="M 2906 1791 
Q 2906 2416 2648 2759 
Q 2391 3103 1925 3103 
Q 1463 3103 1205 2759 
Q 947 2416 947 1791 
Q 947 1169 1205 825 
Q 1463 481 1925 481 
Q 2391 481 2648 825 
Q 2906 1169 2906 1791 
z
M 3481 434 
Q 3481 -459 3084 -895 
Q 2688 -1331 1869 -1331 
Q 1566 -1331 1297 -1286 
Q 1028 -1241 775 -1147 
L 775 -588 
Q 1028 -725 1275 -790 
Q 1522 -856 1778 -856 
Q 2344 -856 2625 -561 
Q 2906 -266 2906 331 
L 2906 616 
Q 2728 306 2450 153 
Q 2172 0 1784 0 
Q 1141 0 747 490 
Q 353 981 353 1791 
Q 353 2603 747 3093 
Q 1141 3584 1784 3584 
Q 2172 3584 2450 3431 
Q 2728 3278 2906 2969 
L 2906 3500 
L 3481 3500 
L 3481 434 
z
" transform="scale(0.015625)"/>
      <path id="DejaVuSans-61" d="M 2194 1759 
Q 1497 1759 1228 1600 
Q 959 1441 959 1056 
Q 959 750 1161 570 
Q 1363 391 1709 391 
Q 2188 391 2477 730 
Q 2766 1069 2766 1631 
L 2766 1759 
L 2194 1759 
z
M 3341 1997 
L 3341 0 
L 2766 0 
L 2766 531 
Q 2569 213 2275 61 
Q 1981 -91 1556 -91 
Q 1019 -91 701 211 
Q 384 513 384 1019 
Q 384 1609 779 1909 
Q 1175 2209 1959 2209 
L 2766 2209 
L 2766 2266 
Q 2766 2663 2505 2880 
Q 2244 3097 1772 3097 
Q 1472 3097 1187 3025 
Q 903 2953 641 2809 
L 641 3341 
Q 956 3463 1253 3523 
Q 1550 3584 1831 3584 
Q 2591 3584 2966 3190 
Q 3341 2797 3341 1997 
z
" transform="scale(0.015625)"/>
      <path id="DejaVuSans-6d" d="M 3328 2828 
Q 3544 3216 3844 3400 
Q 4144 3584 4550 3584 
Q 5097 3584 5394 3201 
Q 5691 2819 5691 2113 
L 5691 0 
L 5113 0 
L 5113 2094 
Q 5113 2597 4934 2840 
Q 4756 3084 4391 3084 
Q 3944 3084 3684 2787 
Q 3425 2491 3425 1978 
L 3425 0 
L 2847 0 
L 2847 2094 
Q 2847 2600 2669 2842 
Q 2491 3084 2119 3084 
Q 1678 3084 1418 2786 
Q 1159 2488 1159 1978 
L 1159 0 
L 581 0 
L 581 3500 
L 1159 3500 
L 1159 2956 
Q 1356 3278 1631 3431 
Q 1906 3584 2284 3584 
Q 2666 3584 2933 3390 
Q 3200 3197 3328 2828 
z
" transform="scale(0.015625)"/>
      <path id="DejaVuSans-66" d="M 2375 4863 
L 2375 4384 
L 1825 4384 
Q 1516 4384 1395 4259 
Q 1275 4134 1275 3809 
L 1275 3500 
L 2222 3500 
L 2222 3053 
L 1275 3053 
L 1275 0 
L 697 0 
L 697 3053 
L 147 3053 
L 147 3500 
L 697 3500 
L 697 3744 
Q 697 4328 969 4595 
Q 1241 4863 1831 4863 
L 2375 4863 
z
" transform="scale(0.015625)"/>
      <path id="DejaVuSans-6e" d="M 3513 2113 
L 3513 0 
L 2938 0 
L 2938 2094 
Q 2938 2591 2744 2837 
Q 2550 3084 2163 3084 
Q 1697 3084 1428 2787 
Q 1159 2491 1159 1978 
L 1159 0 
L 581 0 
L 581 3500 
L 1159 3500 
L 1159 2956 
Q 1366 3272 1645 3428 
Q 1925 3584 2291 3584 
Q 2894 3584 3203 3211 
Q 3513 2838 3513 2113 
z
" transform="scale(0.015625)"/>
      <path id="DejaVuSans-6c" d="M 603 4863 
L 1178 4863 
L 1178 0 
L 603 0 
L 603 4863 
z
" transform="scale(0.015625)"/>
     </defs>
     <use xlink:href="#DejaVuSans-54"/>
     <use xlink:href="#DejaVuSans-6f" transform="translate(44.083984 0)"/>
     <use xlink:href="#DejaVuSans-70" transform="translate(105.265625 0)"/>
     <use xlink:href="#NotoSansEthiopic-Regular-20" transform="translate(168.742188 0)"/>
     <use xlink:href="#DejaVuSans-31" transform="translate(194.742172 0)"/>
     <use xlink:href="#DejaVuSans-35" transform="translate(258.365219 0)"/>
     <use xlink:href="#NotoSansEthiopic-Regular-20" transform="translate(321.988266 0)"/>
     <use xlink:href="#DejaVuSans-33" transform="translate(347.988251 0)"/>
     <use xlink:href="#NotoSansEthiopic-Regular-2d" transform="translate(411.611298 0)"/>
     <use xlink:href="#DejaVuSans-33" transform="translate(443.811295 0)"/>
     <use xlink:href="#NotoSansEthiopic-Regular-2d" transform="translate(507.434341 0)"/>
     <use xlink:href="#DejaVuSans-67" transform="translate(539.634338 0)"/>
     <use xlink:href="#DejaVuSans-72" transform="translate(603.110901 0)"/>
     <use xlink:href="#DejaVuSans-61" transform="translate(644.224182 0)"/>
     <use xlink:href="#DejaVuSans-6d" transform="translate(705.503479 0)"/>
     <use xlink:href="#DejaVuSans-73" transform="translate(802.915588 0)"/>
     <use xlink:href="#NotoSansEthiopic-Regular-20" transform="translate(855.015198 0)"/>
     <use xlink:href="#DejaVuSans-66" transform="translate(881.015182 0)"/>
     <use xlink:href="#DejaVuSans-6f" transform="translate(916.220261 0)"/>
     <use xlink:href="#DejaVuSans-72" transform="translate(977.401901 0)"/>
     <use xlink:href="#NotoSansEthiopic-Regular-20" transform="translate(1018.515182 0)"/>
     <use xlink:href="#DejaVuSans-6e" transform="translate(1044.515167 0)"/>
     <use xlink:href="#DejaVuSans-6f" transform="translate(1107.894073 0)"/>
     <use xlink:href="#DejaVuSans-72" transform="translate(1169.075714 0)"/>
     <use xlink:href="#DejaVuSans-6d" transform="translate(1208.438995 0)"/>
     <use xlink:href="#DejaVuSans-61" transform="translate(1305.851105 0)"/>
     <use xlink:href="#DejaVuSans-6c" transform="translate(1367.130402 0)"/>
    </g>
   </g>
  </g>
 </g>
 <defs>
  <clipPath id="pa65ee19d24">
   <rect x="37.69625" y="22.318125" width="663.7" height="128.185383"/>
  </clipPath>
 </defs>
</svg>
