<?xml version="1.0" encoding="utf-8" standalone="no"?>
<!DOCTYPE svg PUBLIC "-//W3C//DTD SVG 1.1//EN"
  "http://www.w3.org/Graphics/SVG/1.1/DTD/svg11.dtd">
<svg xmlns:xlink="http://www.w3.org/1999/xlink" width="708.73375pt" height="275.318699pt" viewBox="0 0 708.73375 275.318699" xmlns="http://www.w3.org/2000/svg" version="1.1">
 <metadata>
  <rdf:RDF xmlns:dc="http://purl.org/dc/elements/1.1/" xmlns:cc="http://creativecommons.org/ns#" xmlns:rdf="http://www.w3.org/1999/02/22-rdf-syntax-ns#">
   <cc:Work>
    <dc:type rdf:resource="http://purl.org/dc/dcmitype/StillImage"/>
    <dc:date>2025-07-02T11:47:41.200471</dc:date>
    <dc:format>image/svg+xml</dc:format>
    <dc:creator>
     <cc:Agent>
      <dc:title>Matplotlib v3.10.3, https://matplotlib.org/</dc:title>
     </cc:Agent>
    </dc:creator>
   </cc:Work>
  </rdf:RDF>
 </metadata>
 <defs>
  <style type="text/css">*{stroke-linejoin: round; stroke-linecap: butt}</style>
 </defs>
 <g id="figure_1">
  <g id="patch_1">
   <path d="M 0 275.318699 
L 708.73375 275.318699 
L 708.73375 -0 
L 0 -0 
z
" style="fill: #ffffff"/>
  </g>
  <g id="axes_1">
   <g id="patch_2">
    <path d="M 51.69375 234.125956 
L 701.53375 234.125956 
L 701.53375 22.318125 
L 51.69375 22.318125 
z
" style="fill: #ffffff"/>
   </g>
   <g id="matplotlib.axis_1">
    <g id="xtick_1">
     <g id="line2d_1">
      <path d="M 97.198517 234.125956 
L 97.198517 22.318125 
" clip-path="url(#p25db77b24c)" style="fill: none; stroke: #cccccc; stroke-linecap: round"/>
     </g>
     <g id="text_1">
      <!-- user -->
      <g style="fill: #262626" transform="translate(78.615971 266.501082) rotate(-45) scale(0.11 -0.11)">
       <defs>
        <path id="DejaVuSans-75" d="M 544 1381 
L 544 3500 
L 1119 3500 
L 1119 1403 
Q 1119 906 1312 657 
Q 1506 409 1894 409 
Q 2359 409 2629 706 
Q 2900 1003 2900 1516 
L 2900 3500 
L 3475 3500 
L 3475 0 
L 2900 0 
L 2900 538 
Q 2691 219 2414 64 
Q 2138 -91 1772 -91 
Q 1169 -91 856 284 
Q 544 659 544 1381 
z
M 1991 3584 
L 1991 3584 
z
" transform="scale(0.015625)"/>
        <path id="DejaVuSans-73" d="M 2834 3397 
L 2834 2853 
Q 2591 2978 2328 3040 
Q 2066 3103 1784 3103 
Q 1356 3103 1142 2972 
Q 928 2841 928 2578 
Q 928 2378 1081 2264 
Q 1234 2150 1697 2047 
L 1894 2003 
Q 2506 1872 2764 1633 
Q 3022 1394 3022 966 
Q 3022 478 2636 193 
Q 2250 -91 1575 -91 
Q 1294 -91 989 -36 
Q 684 19 347 128 
L 347 722 
Q 666 556 975 473 
Q 1284 391 1588 391 
Q 1994 391 2212 530 
Q 2431 669 2431 922 
Q 2431 1156 2273 1281 
Q 2116 1406 1581 1522 
L 1381 1569 
Q 847 1681 609 1914 
Q 372 2147 372 2553 
Q 372 3047 722 3315 
Q 1072 3584 1716 3584 
Q 2034 3584 2315 3537 
Q 2597 3491 2834 3397 
z
" transform="scale(0.015625)"/>
        <path id="DejaVuSans-65" d="M 3597 1894 
L 3597 1613 
L 953 1613 
Q 991 1019 1311 708 
Q 1631 397 2203 397 
Q 2534 397 2845 478 
Q 3156 559 3463 722 
L 3463 178 
Q 3153 47 2828 -22 
Q 2503 -91 2169 -91 
Q 1331 -91 842 396 
Q 353 884 353 1716 
Q 353 2575 817 3079 
Q 1281 3584 2069 3584 
Q 2775 3584 3186 3129 
Q 3597 2675 3597 1894 
z
M 3022 2063 
Q 3016 2534 2758 2815 
Q 2500 3097 2075 3097 
Q 1594 3097 1305 2825 
Q 1016 2553 972 2059 
L 3022 2063 
z
" transform="scale(0.015625)"/>
        <path id="DejaVuSans-72" d="M 2631 2963 
Q 2534 3019 2420 3045 
Q 2306 3072 2169 3072 
Q 1681 3072 1420 2755 
Q 1159 2438 1159 1844 
L 1159 0 
L 581 0 
L 581 3500 
L 1159 3500 
L 1159 2956 
Q 1341 3275 1631 3429 
Q 1922 3584 2338 3584 
Q 2397 3584 2469 3576 
Q 2541 3569 2628 3553 
L 2631 2963 
z
" transform="scale(0.015625)"/>
       </defs>
       <use xlink:href="#DejaVuSans-75"/>
       <use xlink:href="#DejaVuSans-73" transform="translate(63.378906 0)"/>
       <use xlink:href="#DejaVuSans-65" transform="translate(115.478516 0)"/>
       <use xlink:href="#DejaVuSans-72" transform="translate(177.001953 0)"/>
      </g>
     </g>
    </g>
    <g id="xtick_2">
     <g id="line2d_2">
      <path d="M 137.114979 234.125956 
L 137.114979 22.318125 
" clip-path="url(#p25db77b24c)" style="fill: none; stroke: #cccccc; stroke-linecap: round"/>
     </g>
     <g id="text_2">
      <!-- ላይ -->
      <g style="fill: #262626" transform="translate(125.571681 259.461834) rotate(-45) scale(0.11 -0.11)">
       <defs>
        <path id="NotoSansEthiopic-Regular-120b" d="M 2874 0 
L 1907 3110 
Q 1645 3046 1440 2854 
Q 1235 2662 1084 2256 
Q 934 1850 826 1133 
L 275 1133 
Q 397 1933 582 2422 
Q 768 2912 1053 3181 
Q 1338 3450 1754 3578 
L 1446 4570 
L 2067 4570 
L 3482 0 
L 2874 0 
z
" transform="scale(0.015625)"/>
        <path id="NotoSansEthiopic-Regular-12ed" d="M 192 -525 
L 410 467 
L 1562 467 
Q 1152 838 944 1443 
Q 736 2048 736 2784 
Q 736 3462 905 3868 
Q 1075 4275 1385 4457 
Q 1696 4640 2112 4640 
Q 2502 4640 2729 4509 
Q 2957 4378 3053 4166 
Q 3149 3955 3149 3712 
Q 3149 3373 2969 3101 
Q 2790 2829 2393 2672 
Q 1997 2515 1344 2515 
Q 1370 1926 1558 1475 
Q 1747 1024 2067 768 
Q 2387 512 2803 512 
Q 3238 512 3414 774 
Q 3590 1037 3590 1466 
L 3590 1709 
L 4173 1709 
L 4173 1523 
Q 4173 781 3814 390 
Q 3456 0 2797 0 
Q 2784 0 2771 0 
L 2771 0 
L 883 0 
Q 819 -237 665 -381 
Q 512 -525 320 -525 
L 192 -525 
z
M 1325 2970 
Q 1958 2976 2268 3142 
Q 2579 3309 2579 3686 
Q 2579 3949 2441 4077 
Q 2304 4205 2080 4205 
Q 1709 4205 1517 3894 
Q 1325 3584 1325 3053 
L 1325 2970 
z
" transform="scale(0.015625)"/>
       </defs>
       <use xlink:href="#NotoSansEthiopic-Regular-120b"/>
       <use xlink:href="#NotoSansEthiopic-Regular-12ed" transform="translate(56.899994 0)"/>
      </g>
     </g>
    </g>
    <g id="xtick_3">
     <g id="line2d_3">
      <path d="M 177.03144 234.125956 
L 177.03144 22.318125 
" clip-path="url(#p25db77b24c)" style="fill: none; stroke: #cccccc; stroke-linecap: round"/>
     </g>
     <g id="text_3">
      <!-- ህዝብ -->
      <g style="fill: #262626" transform="translate(158.738146 266.211831) rotate(-45) scale(0.11 -0.11)">
       <defs>
        <path id="NotoSansEthiopic-Regular-1205" d="M 2656 -64 
Q 1920 -64 1593 355 
Q 1267 774 1267 1562 
L 1267 2899 
Q 998 2899 784 3011 
Q 570 3123 445 3382 
Q 320 3642 320 4090 
L 320 4570 
L 902 4570 
L 902 4109 
Q 902 3674 1014 3523 
Q 1126 3373 1382 3373 
L 1850 3373 
L 1850 1594 
Q 1850 1050 2035 749 
Q 2221 448 2656 448 
Q 3136 448 3312 761 
Q 3488 1075 3488 1600 
L 3488 4570 
L 4070 4570 
L 4070 1549 
Q 4070 819 3724 377 
Q 3379 -64 2656 -64 
z
" transform="scale(0.015625)"/>
        <path id="NotoSansEthiopic-Regular-12dd" d="M 1389 0 
L 1389 3328 
Q 1389 3680 1299 3843 
Q 1210 4006 1078 4054 
Q 947 4102 806 4102 
L 787 4102 
Q 723 3885 579 3731 
Q 435 3578 218 3578 
L 96 3578 
L 314 4570 
L 864 4570 
Q 1421 4570 1696 4294 
Q 1971 4019 1971 3398 
L 1971 2637 
L 3168 2637 
L 3168 4570 
L 3750 4570 
L 3750 0 
L 3168 0 
L 3168 2131 
L 1971 2131 
L 1971 0 
L 1389 0 
z
" transform="scale(0.015625)"/>
        <path id="NotoSansEthiopic-Regular-1265" d="M 96 1254 
L 314 2246 
L 1370 2246 
L 1370 3021 
Q 1370 3750 1715 4192 
Q 2061 4634 2784 4634 
Q 3520 4634 3846 4214 
Q 4173 3795 4173 3008 
L 4173 0 
L 3590 0 
L 3590 2976 
Q 3590 3526 3404 3824 
Q 3219 4122 2784 4122 
Q 2304 4122 2128 3808 
Q 1952 3494 1952 2970 
L 1952 0 
L 1370 0 
L 1370 1779 
L 787 1779 
Q 723 1542 569 1398 
Q 416 1254 224 1254 
L 96 1254 
z
" transform="scale(0.015625)"/>
       </defs>
       <use xlink:href="#NotoSansEthiopic-Regular-1205"/>
       <use xlink:href="#NotoSansEthiopic-Regular-12dd" transform="translate(72.599991 0)"/>
       <use xlink:href="#NotoSansEthiopic-Regular-1265" transform="translate(140.199982 0)"/>
      </g>
     </g>
    </g>
    <g id="xtick_4">
     <g id="line2d_4">
      <path d="M 216.947902 234.125956 
L 216.947902 22.318125 
" clip-path="url(#p25db77b24c)" style="fill: none; stroke: #cccccc; stroke-linecap: round"/>
     </g>
     <g id="text_4">
      <!-- ግን -->
      <g style="fill: #262626" transform="translate(205.693856 259.172583) rotate(-45) scale(0.11 -0.11)">
       <defs>
        <path id="NotoSansEthiopic-Regular-130d" d="M 1203 2880 
Q 640 2880 400 3120 
Q 160 3360 160 3712 
Q 160 4083 425 4326 
Q 691 4570 1203 4570 
L 1229 4570 
L 1229 4570 
L 2138 4570 
Q 2656 4570 3046 4486 
Q 3437 4403 3702 4188 
Q 3968 3974 4099 3587 
Q 4230 3200 4230 2586 
L 4230 0 
L 3648 0 
L 3648 2413 
Q 3648 3098 3510 3472 
Q 3373 3846 3053 3996 
Q 2733 4147 2170 4147 
L 2144 4147 
Q 2246 3968 2246 3731 
Q 2246 3379 1980 3129 
Q 1715 2880 1203 2880 
z
M 1203 3309 
Q 1446 3309 1561 3417 
Q 1677 3526 1677 3725 
Q 1677 3917 1558 4025 
Q 1440 4134 1203 4134 
Q 966 4134 848 4025 
Q 730 3917 730 3725 
Q 730 3526 848 3417 
Q 966 3309 1203 3309 
z
" transform="scale(0.015625)"/>
        <path id="NotoSansEthiopic-Regular-1295" d="M 979 0 
L 2144 2579 
L 1485 2579 
L 1485 3379 
Q 1485 3795 1321 3948 
Q 1158 4102 883 4102 
L 787 4102 
Q 710 3853 563 3715 
Q 416 3578 211 3578 
L 96 3578 
L 314 4570 
L 947 4570 
Q 1530 4570 1798 4275 
Q 2067 3981 2067 3398 
L 2067 3078 
L 2970 3078 
L 1619 0 
L 979 0 
z
" transform="scale(0.015625)"/>
       </defs>
       <use xlink:href="#NotoSansEthiopic-Regular-130d"/>
       <use xlink:href="#NotoSansEthiopic-Regular-1295" transform="translate(75.099991 0)"/>
      </g>
     </g>
    </g>
    <g id="xtick_5">
     <g id="line2d_5">
      <path d="M 256.864364 234.125956 
L 256.864364 22.318125 
" clip-path="url(#p25db77b24c)" style="fill: none; stroke: #cccccc; stroke-linecap: round"/>
     </g>
     <g id="text_5">
      <!-- ምን -->
      <g style="fill: #262626" transform="translate(244.66843 260.114471) rotate(-45) scale(0.11 -0.11)">
       <defs>
        <path id="NotoSansEthiopic-Regular-121d" d="M 1120 0 
L 1862 1850 
Q 1651 1792 1427 1792 
Q 883 1792 563 2118 
Q 243 2445 243 3046 
Q 243 3750 652 4160 
Q 1062 4570 1805 4570 
L 4269 4570 
Q 4838 4570 5132 4275 
Q 5427 3981 5427 3507 
Q 5427 3002 5158 2662 
Q 4890 2323 4307 2323 
L 3270 2323 
L 3270 4147 
L 2624 4147 
L 2624 2304 
L 1715 0 
L 1120 0 
z
M 1459 2246 
Q 1664 2246 1798 2304 
Q 1933 2362 2042 2451 
L 2042 4147 
L 1862 4147 
Q 1376 4147 1094 3862 
Q 813 3578 813 3046 
Q 813 2656 989 2451 
Q 1165 2246 1459 2246 
z
M 3853 2746 
L 4198 2746 
Q 4454 2746 4598 2854 
Q 4742 2963 4800 3129 
Q 4858 3296 4858 3475 
Q 4858 3635 4803 3788 
Q 4749 3942 4621 4044 
Q 4493 4147 4256 4147 
L 3853 4147 
L 3853 2746 
z
" transform="scale(0.015625)"/>
       </defs>
       <use xlink:href="#NotoSansEthiopic-Regular-121d"/>
       <use xlink:href="#NotoSansEthiopic-Regular-1295" transform="translate(87.199982 0)"/>
      </g>
     </g>
    </g>
    <g id="xtick_6">
     <g id="line2d_6">
      <path d="M 296.780826 234.125956 
L 296.780826 22.318125 
" clip-path="url(#p25db77b24c)" style="fill: none; stroke: #cccccc; stroke-linecap: round"/>
     </g>
     <g id="text_6">
      <!-- አንተ -->
      <g style="fill: #262626" transform="translate(282.392419 262.306944) rotate(-45) scale(0.11 -0.11)">
       <defs>
        <path id="NotoSansEthiopic-Regular-12a0" d="M 352 0 
L 1555 2925 
Q 973 2944 681 3222 
Q 390 3501 390 4077 
L 390 4563 
L 973 4563 
L 973 4128 
Q 973 3712 1133 3571 
Q 1293 3430 1626 3430 
L 2374 3430 
L 1990 2470 
Q 2349 2336 2643 2051 
Q 2938 1766 3130 1270 
Q 3322 774 3379 0 
L 2797 0 
Q 2765 582 2624 966 
Q 2483 1350 2265 1584 
Q 2048 1818 1779 1952 
L 998 0 
L 352 0 
z
" transform="scale(0.015625)"/>
        <path id="NotoSansEthiopic-Regular-1270" d="M 1632 0 
L 1632 2970 
L 787 2970 
Q 723 2733 569 2589 
Q 416 2445 224 2445 
L 96 2445 
L 314 3437 
L 1632 3437 
L 1632 4570 
L 2214 4570 
L 2214 3437 
L 3533 3437 
L 3750 2445 
L 3622 2445 
Q 3430 2445 3280 2589 
Q 3130 2733 3059 2970 
L 2214 2970 
L 2214 0 
L 1632 0 
z
" transform="scale(0.015625)"/>
       </defs>
       <use xlink:href="#NotoSansEthiopic-Regular-12a0"/>
       <use xlink:href="#NotoSansEthiopic-Regular-1295" transform="translate(55.299988 0)"/>
       <use xlink:href="#NotoSansEthiopic-Regular-1270" transform="translate(104.099976 0)"/>
      </g>
     </g>
    </g>
    <g id="xtick_7">
     <g id="line2d_7">
      <path d="M 336.697288 234.125956 
L 336.697288 22.318125 
" clip-path="url(#p25db77b24c)" style="fill: none; stroke: #cccccc; stroke-linecap: round"/>
     </g>
     <g id="text_7">
      <!-- አማራ -->
      <g style="fill: #262626" transform="translate(318.675014 265.94081) rotate(-45) scale(0.11 -0.11)">
       <defs>
        <path id="NotoSansEthiopic-Regular-121b" d="M 3520 0 
L 4474 2317 
L 4134 2317 
Q 3686 2317 3446 2537 
Q 3206 2758 3206 3187 
Q 3206 3642 3315 4147 
L 2624 4147 
L 2624 2304 
Q 2406 2080 2105 1936 
Q 1805 1792 1427 1792 
Q 883 1792 563 2118 
Q 243 2445 243 3046 
Q 243 3750 662 4160 
Q 1082 4570 1824 4570 
L 4358 4570 
Q 5466 4570 5466 3667 
Q 5466 3424 5363 3091 
Q 5261 2758 5133 2458 
L 4115 0 
L 3520 0 
z
M 1459 2246 
Q 1664 2246 1798 2304 
Q 1933 2362 2042 2451 
L 2042 4147 
L 1862 4147 
Q 1376 4147 1094 3862 
Q 813 3578 813 3046 
Q 813 2656 989 2451 
Q 1165 2246 1459 2246 
z
M 4461 2739 
L 4646 2739 
L 4787 3091 
Q 4838 3213 4873 3357 
Q 4909 3501 4909 3642 
Q 4909 3885 4749 4016 
Q 4589 4147 4307 4147 
L 3878 4147 
Q 3821 3866 3795 3654 
Q 3770 3443 3770 3251 
Q 3770 2976 3920 2857 
Q 4070 2739 4461 2739 
z
" transform="scale(0.015625)"/>
        <path id="NotoSansEthiopic-Regular-122b" d="M 1792 0 
Q 1043 0 681 329 
Q 320 659 320 1235 
Q 320 1619 461 1907 
Q 602 2195 883 2483 
Q 1165 2771 1587 3162 
Q 1971 3520 2131 3840 
Q 2291 4160 2291 4570 
L 2874 4570 
Q 2874 3987 2605 3564 
Q 2336 3142 1907 2752 
Q 1549 2426 1334 2186 
Q 1120 1946 1024 1734 
Q 928 1523 928 1267 
Q 928 1043 1005 860 
Q 1082 678 1270 572 
Q 1459 467 1792 467 
L 1843 467 
Q 1926 1210 2291 1600 
Q 2656 1990 3392 1990 
L 3936 1990 
L 4154 998 
L 4038 998 
Q 3821 998 3677 1142 
Q 3533 1286 3462 1523 
Q 3091 1523 2867 1379 
Q 2643 1235 2531 902 
Q 2419 570 2394 0 
L 1792 0 
z
" transform="scale(0.015625)"/>
       </defs>
       <use xlink:href="#NotoSansEthiopic-Regular-12a0"/>
       <use xlink:href="#NotoSansEthiopic-Regular-121b" transform="translate(55.299988 0)"/>
       <use xlink:href="#NotoSansEthiopic-Regular-122b" transform="translate(144.499969 0)"/>
      </g>
     </g>
    </g>
    <g id="xtick_8">
     <g id="line2d_8">
      <path d="M 376.61375 234.125956 
L 376.61375 22.318125 
" clip-path="url(#p25db77b24c)" style="fill: none; stroke: #cccccc; stroke-linecap: round"/>
     </g>
     <g id="text_8">
      <!-- ሰው -->
      <g style="fill: #262626" transform="translate(363.41516 261.117126) rotate(-45) scale(0.11 -0.11)">
       <defs>
        <path id="NotoSansEthiopic-Regular-1230" d="M 576 0 
L 576 2310 
Q 576 2957 848 3382 
Q 1120 3808 1690 3898 
L 1690 4864 
L 2272 4864 
L 2272 3904 
Q 2854 3827 3116 3414 
Q 3379 3002 3379 2298 
L 3379 0 
L 2797 0 
L 2797 2266 
Q 2797 2816 2611 3113 
Q 2426 3411 1990 3411 
Q 1510 3411 1334 3097 
Q 1158 2784 1158 2259 
L 1158 0 
L 576 0 
z
" transform="scale(0.015625)"/>
        <path id="NotoSansEthiopic-Regular-12cd" d="M 1658 -64 
Q 1018 -64 733 464 
Q 448 992 448 1997 
Q 448 2765 637 3344 
Q 826 3923 1197 4246 
Q 1568 4570 2106 4570 
L 3123 4570 
Q 3757 4570 4067 4096 
Q 4378 3622 4397 2682 
L 4787 2682 
Q 4838 2861 4982 3030 
Q 5126 3200 5325 3200 
L 5478 3200 
L 5312 2445 
L 5478 1690 
L 5325 1690 
Q 5126 1690 4982 1862 
Q 4838 2035 4787 2214 
L 4390 2214 
Q 4339 1370 4022 918 
Q 3706 467 3123 467 
L 2694 467 
Q 2502 230 2249 83 
Q 1997 -64 1658 -64 
z
M 1683 403 
Q 2029 403 2246 723 
L 2246 4122 
L 2157 4122 
Q 1613 4122 1315 3597 
Q 1018 3072 1018 2016 
Q 1018 1171 1197 787 
Q 1376 403 1683 403 
z
M 2829 928 
L 3040 928 
Q 3347 928 3520 1126 
Q 3693 1325 3763 1686 
Q 3834 2048 3834 2547 
Q 3834 3008 3760 3363 
Q 3686 3718 3520 3920 
Q 3354 4122 3072 4122 
L 2829 4122 
L 2829 928 
z
" transform="scale(0.015625)"/>
       </defs>
       <use xlink:href="#NotoSansEthiopic-Regular-1230"/>
       <use xlink:href="#NotoSansEthiopic-Regular-12cd" transform="translate(61.799988 0)"/>
      </g>
     </g>
    </g>
    <g id="xtick_9">
     <g id="line2d_9">
      <path d="M 416.530212 234.125956 
L 416.530212 22.318125 
" clip-path="url(#p25db77b24c)" style="fill: none; stroke: #cccccc; stroke-linecap: round"/>
     </g>
     <g id="text_9">
      <!-- ነበር -->
      <g style="fill: #262626" transform="translate(402.879516 261.569233) rotate(-45) scale(0.11 -0.11)">
       <defs>
        <path id="NotoSansEthiopic-Regular-1290" d="M 1459 0 
L 1459 2957 
Q 947 2976 665 3238 
Q 384 3501 384 4077 
L 384 4563 
L 966 4563 
L 966 4128 
Q 966 3712 1126 3571 
Q 1286 3430 1619 3430 
L 2042 3430 
L 2042 0 
L 1459 0 
z
" transform="scale(0.015625)"/>
        <path id="NotoSansEthiopic-Regular-1260" d="M 1987 4608 
Q 2723 4608 3049 4189 
Q 3376 3770 3376 2982 
L 3376 -26 
L 2794 -26 
L 2794 2950 
Q 2794 3494 2608 3795 
Q 2422 4096 1987 4096 
Q 1507 4096 1331 3782 
Q 1155 3469 1155 2944 
L 1155 -26 
L 573 -26 
L 573 2995 
Q 573 3725 918 4166 
Q 1264 4608 1987 4608 
z
" transform="scale(0.015625)"/>
        <path id="NotoSansEthiopic-Regular-122d" d="M 2982 -525 
Q 2758 -525 2617 -352 
Q 2477 -179 2426 0 
L 2016 0 
Q 1171 0 809 352 
Q 448 704 448 1440 
L 448 2003 
Q 448 3328 899 3949 
Q 1350 4570 2349 4570 
L 2950 4570 
L 3168 3578 
L 3040 3578 
Q 2822 3578 2678 3741 
Q 2534 3904 2477 4102 
L 2317 4102 
Q 1907 4102 1619 3916 
Q 1331 3731 1180 3264 
Q 1030 2797 1030 1946 
L 1030 1472 
Q 1030 941 1260 704 
Q 1491 467 2035 467 
L 2426 467 
Q 2477 646 2621 816 
Q 2765 986 2982 986 
L 3117 986 
L 2950 230 
L 3117 -525 
L 2982 -525 
z
" transform="scale(0.015625)"/>
       </defs>
       <use xlink:href="#NotoSansEthiopic-Regular-1290"/>
       <use xlink:href="#NotoSansEthiopic-Regular-1260" transform="translate(41.899994 0)"/>
       <use xlink:href="#NotoSansEthiopic-Regular-122d" transform="translate(103.699982 0)"/>
      </g>
     </g>
    </g>
    <g id="xtick_10">
     <g id="line2d_10">
      <path d="M 456.446674 234.125956 
L 456.446674 22.318125 
" clip-path="url(#p25db77b24c)" style="fill: none; stroke: #cccccc; stroke-linecap: round"/>
     </g>
     <g id="text_10">
      <!-- ነገር -->
      <g style="fill: #262626" transform="translate(443.161795 261.203415) rotate(-45) scale(0.11 -0.11)">
       <defs>
        <path id="NotoSansEthiopic-Regular-1308" d="M 2496 0 
L 2496 2413 
Q 2496 3098 2339 3462 
Q 2182 3827 1833 3964 
Q 1485 4102 909 4102 
L 787 4102 
Q 704 3827 550 3702 
Q 397 3578 218 3578 
L 96 3578 
L 314 4570 
L 922 4570 
Q 1440 4570 1840 4486 
Q 2240 4403 2518 4188 
Q 2797 3974 2937 3587 
Q 3078 3200 3078 2586 
L 3078 0 
L 2496 0 
z
" transform="scale(0.015625)"/>
       </defs>
       <use xlink:href="#NotoSansEthiopic-Regular-1290"/>
       <use xlink:href="#NotoSansEthiopic-Regular-1308" transform="translate(41.899994 0)"/>
       <use xlink:href="#NotoSansEthiopic-Regular-122d" transform="translate(98.999985 0)"/>
      </g>
     </g>
    </g>
    <g id="xtick_11">
     <g id="line2d_11">
      <path d="M 496.363136 234.125956 
L 496.363136 22.318125 
" clip-path="url(#p25db77b24c)" style="fill: none; stroke: #cccccc; stroke-linecap: round"/>
     </g>
     <g id="text_11">
      <!-- ብቻ -->
      <g style="fill: #262626" transform="translate(484.158694 260.122978) rotate(-45) scale(0.11 -0.11)">
       <defs>
        <path id="NotoSansEthiopic-Regular-127b" d="M 96 -525 
L 314 467 
L 851 467 
Q 1190 467 1385 560 
Q 1581 653 1664 877 
Q 1747 1101 1747 1478 
L 1747 2957 
L 902 2957 
Q 838 2720 684 2576 
Q 531 2432 339 2432 
L 211 2432 
L 429 3424 
L 1747 3424 
L 1747 4480 
L 1037 4480 
Q 992 4301 848 4128 
Q 704 3955 499 3955 
L 346 3955 
L 512 4710 
L 346 5466 
L 499 5466 
Q 704 5466 848 5296 
Q 992 5126 1037 4947 
L 3040 4947 
Q 3091 5126 3235 5296 
Q 3379 5466 3578 5466 
L 3731 5466 
L 3565 4710 
L 3731 3955 
L 3578 3955 
Q 3379 3955 3235 4128 
Q 3091 4301 3040 4480 
L 2330 4480 
L 2330 3424 
L 3648 3424 
L 3866 2432 
L 3738 2432 
Q 3546 2432 3395 2576 
Q 3245 2720 3174 2957 
L 2330 2957 
L 2330 1434 
Q 2330 736 1990 368 
Q 1651 0 954 0 
L 787 0 
Q 730 -224 576 -374 
Q 422 -525 224 -525 
L 96 -525 
z
" transform="scale(0.015625)"/>
       </defs>
       <use xlink:href="#NotoSansEthiopic-Regular-1265"/>
       <use xlink:href="#NotoSansEthiopic-Regular-127b" transform="translate(74.199982 0)"/>
      </g>
     </g>
    </g>
    <g id="xtick_12">
     <g id="line2d_12">
      <path d="M 536.279598 234.125956 
L 536.279598 22.318125 
" clip-path="url(#p25db77b24c)" style="fill: none; stroke: #cccccc; stroke-linecap: round"/>
     </g>
     <g id="text_12">
      <!-- ጋር -->
      <g style="fill: #262626" transform="translate(526.144879 258.053255) rotate(-45) scale(0.11 -0.11)">
       <defs>
        <path id="NotoSansEthiopic-Regular-130b" d="M 96 -525 
L 314 467 
L 1517 467 
Q 1946 467 2176 560 
Q 2406 653 2496 877 
Q 2586 1101 2586 1478 
L 2586 2413 
Q 2586 3098 2419 3462 
Q 2253 3827 1894 3964 
Q 1536 4102 960 4102 
L 864 4102 
Q 800 3885 659 3731 
Q 518 3578 294 3578 
L 173 3578 
L 390 4570 
L 1011 4570 
Q 1530 4570 1930 4486 
Q 2330 4403 2608 4188 
Q 2886 3974 3027 3587 
Q 3168 3200 3168 2586 
L 3168 1434 
Q 3168 736 2806 368 
Q 2445 0 1619 0 
L 781 0 
Q 717 -237 569 -381 
Q 422 -525 198 -525 
L 96 -525 
z
" transform="scale(0.015625)"/>
       </defs>
       <use xlink:href="#NotoSansEthiopic-Regular-130b"/>
       <use xlink:href="#NotoSansEthiopic-Regular-122d" transform="translate(58.499985 0)"/>
      </g>
     </g>
    </g>
    <g id="xtick_13">
     <g id="line2d_13">
      <path d="M 576.19606 234.125956 
L 576.19606 22.318125 
" clip-path="url(#p25db77b24c)" style="fill: none; stroke: #cccccc; stroke-linecap: round"/>
     </g>
     <g id="text_13">
      <!-- አሁን -->
      <g style="fill: #262626" transform="translate(560.687109 263.427487) rotate(-45) scale(0.11 -0.11)">
       <defs>
        <path id="NotoSansEthiopic-Regular-1201" d="M 1965 -64 
Q 1229 -64 902 355 
Q 576 774 576 1562 
L 576 4570 
L 1158 4570 
L 1158 1594 
Q 1158 1050 1344 749 
Q 1530 448 1965 448 
Q 2445 448 2621 761 
Q 2797 1075 2797 1600 
L 2797 4570 
L 3379 4570 
L 3379 2598 
L 4454 2598 
L 4672 1606 
L 4544 1606 
Q 4352 1606 4201 1750 
Q 4051 1894 3981 2131 
L 3379 2131 
L 3379 1549 
Q 3379 819 3033 377 
Q 2688 -64 1965 -64 
z
" transform="scale(0.015625)"/>
       </defs>
       <use xlink:href="#NotoSansEthiopic-Regular-12a0"/>
       <use xlink:href="#NotoSansEthiopic-Regular-1201" transform="translate(55.299988 0)"/>
       <use xlink:href="#NotoSansEthiopic-Regular-1295" transform="translate(129.799973 0)"/>
      </g>
     </g>
    </g>
    <g id="xtick_14">
     <g id="line2d_14">
      <path d="M 616.112521 234.125956 
L 616.112521 22.318125 
" clip-path="url(#p25db77b24c)" style="fill: none; stroke: #cccccc; stroke-linecap: round"/>
     </g>
     <g id="text_14">
      <!-- እንጂ -->
      <g style="fill: #262626" transform="translate(599.848845 264.182213) rotate(-45) scale(0.11 -0.11)">
       <defs>
        <path id="NotoSansEthiopic-Regular-12a5" d="M 352 0 
L 1459 2688 
L 819 2688 
L 1120 3392 
Q 787 3462 608 3699 
Q 429 3936 429 4442 
L 429 4570 
L 1011 4570 
L 1011 4461 
Q 1011 4166 1094 4028 
Q 1178 3891 1328 3852 
Q 1478 3814 1677 3814 
L 1920 3814 
L 1632 3149 
L 2266 3149 
L 1990 2464 
Q 2349 2336 2640 2054 
Q 2931 1773 3123 1273 
Q 3315 774 3379 0 
L 2797 0 
Q 2765 589 2617 973 
Q 2470 1357 2252 1590 
Q 2035 1824 1779 1952 
L 998 0 
L 352 0 
z
" transform="scale(0.015625)"/>
        <path id="NotoSansEthiopic-Regular-1302" d="M 96 474 
L 314 1466 
L 1843 1466 
Q 1523 1651 1347 1955 
Q 1171 2259 1171 2694 
Q 1171 3142 1401 3465 
Q 1632 3789 2086 3878 
L 2086 4192 
L 1030 4192 
Q 986 4013 842 3840 
Q 698 3667 493 3667 
L 339 3667 
L 506 4422 
L 339 5178 
L 493 5178 
Q 698 5178 842 5008 
Q 986 4838 1030 4659 
L 3539 4659 
Q 3590 4838 3734 5008 
Q 3878 5178 4077 5178 
L 4230 5178 
L 4064 4422 
L 4230 3667 
L 4077 3667 
Q 3878 3667 3734 3840 
Q 3590 4013 3539 4192 
L 2669 4192 
L 2669 3891 
Q 2970 3846 3136 3708 
Q 3302 3571 3372 3388 
Q 3443 3206 3443 3027 
Q 3443 2758 3296 2524 
Q 3149 2291 2838 2137 
Q 2528 1984 2029 1965 
Q 2387 1555 3123 1466 
L 4096 1466 
L 4096 467 
L 4602 467 
Q 4653 646 4797 816 
Q 4941 986 5139 986 
L 5293 986 
L 5126 230 
L 5293 -525 
L 5139 -525 
Q 4941 -525 4797 -352 
Q 4653 -179 4602 0 
L 3514 0 
L 3514 998 
L 787 998 
Q 723 762 569 618 
Q 416 474 224 474 
L 96 474 
z
M 1760 2701 
Q 1760 2541 1798 2400 
Q 2349 2413 2611 2573 
Q 2874 2733 2874 3027 
Q 2874 3226 2749 3344 
Q 2624 3462 2394 3462 
Q 2080 3462 1920 3260 
Q 1760 3059 1760 2701 
z
" transform="scale(0.015625)"/>
       </defs>
       <use xlink:href="#NotoSansEthiopic-Regular-12a5"/>
       <use xlink:href="#NotoSansEthiopic-Regular-1295" transform="translate(55.299988 0)"/>
       <use xlink:href="#NotoSansEthiopic-Regular-1302" transform="translate(104.099976 0)"/>
      </g>
     </g>
    </g>
    <g id="xtick_15">
     <g id="line2d_15">
      <path d="M 656.028983 234.125956 
L 656.028983 22.318125 
" clip-path="url(#p25db77b24c)" style="fill: none; stroke: #cccccc; stroke-linecap: round"/>
     </g>
     <g id="text_15">
      <!-- ማለት -->
      <g style="fill: #262626" transform="translate(638.209672 265.737848) rotate(-45) scale(0.11 -0.11)">
       <defs>
        <path id="NotoSansEthiopic-Regular-1208" d="M 275 0 
Q 365 915 486 1545 
Q 608 2176 790 2585 
Q 973 2995 1241 3228 
Q 1510 3462 1888 3578 
L 1581 4570 
L 2202 4570 
L 3616 0 
L 3008 0 
L 2042 3110 
Q 1798 3053 1606 2883 
Q 1414 2714 1267 2368 
Q 1120 2022 1014 1449 
Q 909 877 838 0 
L 275 0 
z
" transform="scale(0.015625)"/>
        <path id="NotoSansEthiopic-Regular-1275" d="M 1677 0 
L 1677 2624 
L 787 2624 
Q 723 2387 569 2243 
Q 416 2099 224 2099 
L 96 2099 
L 314 3091 
L 1677 3091 
L 1677 3539 
Q 1165 3558 883 3820 
Q 602 4083 602 4659 
L 602 5146 
L 1184 5146 
L 1184 4710 
Q 1184 4294 1344 4153 
Q 1504 4013 1837 4013 
L 2259 4013 
L 2259 3091 
L 3533 3091 
L 3750 2099 
L 3622 2099 
Q 3430 2099 3280 2243 
Q 3130 2387 3059 2624 
L 2259 2624 
L 2259 0 
L 1677 0 
z
" transform="scale(0.015625)"/>
       </defs>
       <use xlink:href="#NotoSansEthiopic-Regular-121b"/>
       <use xlink:href="#NotoSansEthiopic-Regular-1208" transform="translate(89.199982 0)"/>
       <use xlink:href="#NotoSansEthiopic-Regular-1275" transform="translate(148.199966 0)"/>
      </g>
     </g>
    </g>
   </g>
   <g id="matplotlib.axis_2">
    <g id="ytick_1">
     <g id="line2d_16">
      <path d="M 51.69375 234.125956 
L 701.53375 234.125956 
" clip-path="url(#p25db77b24c)" style="fill: none; stroke: #cccccc; stroke-linecap: round"/>
     </g>
     <g id="text_16">
      <!-- 0 -->
      <g style="fill: #262626" transform="translate(35.195 238.305097) scale(0.11 -0.11)">
       <defs>
        <path id="DejaVuSans-30" d="M 2034 4250 
Q 1547 4250 1301 3770 
Q 1056 3291 1056 2328 
Q 1056 1369 1301 889 
Q 1547 409 2034 409 
Q 2525 409 2770 889 
Q 3016 1369 3016 2328 
Q 3016 3291 2770 3770 
Q 2525 4250 2034 4250 
z
M 2034 4750 
Q 2819 4750 3233 4129 
Q 3647 3509 3647 2328 
Q 3647 1150 3233 529 
Q 2819 -91 2034 -91 
Q 1250 -91 836 529 
Q 422 1150 422 2328 
Q 422 3509 836 4129 
Q 1250 4750 2034 4750 
z
" transform="scale(0.015625)"/>
       </defs>
       <use xlink:href="#DejaVuSans-30"/>
      </g>
     </g>
    </g>
    <g id="ytick_2">
     <g id="line2d_17">
      <path d="M 51.69375 208.292346 
L 701.53375 208.292346 
" clip-path="url(#p25db77b24c)" style="fill: none; stroke: #cccccc; stroke-linecap: round"/>
     </g>
     <g id="text_17">
      <!-- 2000 -->
      <g style="fill: #262626" transform="translate(14.19875 212.471487) scale(0.11 -0.11)">
       <defs>
        <path id="DejaVuSans-32" d="M 1228 531 
L 3431 531 
L 3431 0 
L 469 0 
L 469 531 
Q 828 903 1448 1529 
Q 2069 2156 2228 2338 
Q 2531 2678 2651 2914 
Q 2772 3150 2772 3378 
Q 2772 3750 2511 3984 
Q 2250 4219 1831 4219 
Q 1534 4219 1204 4116 
Q 875 4013 500 3803 
L 500 4441 
Q 881 4594 1212 4672 
Q 1544 4750 1819 4750 
Q 2544 4750 2975 4387 
Q 3406 4025 3406 3419 
Q 3406 3131 3298 2873 
Q 3191 2616 2906 2266 
Q 2828 2175 2409 1742 
Q 1991 1309 1228 531 
z
" transform="scale(0.015625)"/>
       </defs>
       <use xlink:href="#DejaVuSans-32"/>
       <use xlink:href="#DejaVuSans-30" transform="translate(63.623047 0)"/>
       <use xlink:href="#DejaVuSans-30" transform="translate(127.246094 0)"/>
       <use xlink:href="#DejaVuSans-30" transform="translate(190.869141 0)"/>
      </g>
     </g>
    </g>
    <g id="ytick_3">
     <g id="line2d_18">
      <path d="M 51.69375 182.458736 
L 701.53375 182.458736 
" clip-path="url(#p25db77b24c)" style="fill: none; stroke: #cccccc; stroke-linecap: round"/>
     </g>
     <g id="text_18">
      <!-- 4000 -->
      <g style="fill: #262626" transform="translate(14.19875 186.637877) scale(0.11 -0.11)">
       <defs>
        <path id="DejaVuSans-34" d="M 2419 4116 
L 825 1625 
L 2419 1625 
L 2419 4116 
z
M 2253 4666 
L 3047 4666 
L 3047 1625 
L 3713 1625 
L 3713 1100 
L 3047 1100 
L 3047 0 
L 2419 0 
L 2419 1100 
L 313 1100 
L 313 1709 
L 2253 4666 
z
" transform="scale(0.015625)"/>
       </defs>
       <use xlink:href="#DejaVuSans-34"/>
       <use xlink:href="#DejaVuSans-30" transform="translate(63.623047 0)"/>
       <use xlink:href="#DejaVuSans-30" transform="translate(127.246094 0)"/>
       <use xlink:href="#DejaVuSans-30" transform="translate(190.869141 0)"/>
      </g>
     </g>
    </g>
    <g id="ytick_4">
     <g id="line2d_19">
      <path d="M 51.69375 156.625126 
L 701.53375 156.625126 
" clip-path="url(#p25db77b24c)" style="fill: none; stroke: #cccccc; stroke-linecap: round"/>
     </g>
     <g id="text_19">
      <!-- 6000 -->
      <g style="fill: #262626" transform="translate(14.19875 160.804267) scale(0.11 -0.11)">
       <defs>
        <path id="DejaVuSans-36" d="M 2113 2584 
Q 1688 2584 1439 2293 
Q 1191 2003 1191 1497 
Q 1191 994 1439 701 
Q 1688 409 2113 409 
Q 2538 409 2786 701 
Q 3034 994 3034 1497 
Q 3034 2003 2786 2293 
Q 2538 2584 2113 2584 
z
M 3366 4563 
L 3366 3988 
Q 3128 4100 2886 4159 
Q 2644 4219 2406 4219 
Q 1781 4219 1451 3797 
Q 1122 3375 1075 2522 
Q 1259 2794 1537 2939 
Q 1816 3084 2150 3084 
Q 2853 3084 3261 2657 
Q 3669 2231 3669 1497 
Q 3669 778 3244 343 
Q 2819 -91 2113 -91 
Q 1303 -91 875 529 
Q 447 1150 447 2328 
Q 447 3434 972 4092 
Q 1497 4750 2381 4750 
Q 2619 4750 2861 4703 
Q 3103 4656 3366 4563 
z
" transform="scale(0.015625)"/>
       </defs>
       <use xlink:href="#DejaVuSans-36"/>
       <use xlink:href="#DejaVuSans-30" transform="translate(63.623047 0)"/>
       <use xlink:href="#DejaVuSans-30" transform="translate(127.246094 0)"/>
       <use xlink:href="#DejaVuSans-30" transform="translate(190.869141 0)"/>
      </g>
     </g>
    </g>
    <g id="ytick_5">
     <g id="line2d_20">
      <path d="M 51.69375 130.791516 
L 701.53375 130.791516 
" clip-path="url(#p25db77b24c)" style="fill: none; stroke: #cccccc; stroke-linecap: round"/>
     </g>
     <g id="text_20">
      <!-- 8000 -->
      <g style="fill: #262626" transform="translate(14.19875 134.970657) scale(0.11 -0.11)">
       <defs>
        <path id="DejaVuSans-38" d="M 2034 2216 
Q 1584 2216 1326 1975 
Q 1069 1734 1069 1313 
Q 1069 891 1326 650 
Q 1584 409 2034 409 
Q 2484 409 2743 651 
Q 3003 894 3003 1313 
Q 3003 1734 2745 1975 
Q 2488 2216 2034 2216 
z
M 1403 2484 
Q 997 2584 770 2862 
Q 544 3141 544 3541 
Q 544 4100 942 4425 
Q 1341 4750 2034 4750 
Q 2731 4750 3128 4425 
Q 3525 4100 3525 3541 
Q 3525 3141 3298 2862 
Q 3072 2584 2669 2484 
Q 3125 2378 3379 2068 
Q 3634 1759 3634 1313 
Q 3634 634 3220 271 
Q 2806 -91 2034 -91 
Q 1263 -91 848 271 
Q 434 634 434 1313 
Q 434 1759 690 2068 
Q 947 2378 1403 2484 
z
M 1172 3481 
Q 1172 3119 1398 2916 
Q 1625 2713 2034 2713 
Q 2441 2713 2670 2916 
Q 2900 3119 2900 3481 
Q 2900 3844 2670 4047 
Q 2441 4250 2034 4250 
Q 1625 4250 1398 4047 
Q 1172 3844 1172 3481 
z
" transform="scale(0.015625)"/>
       </defs>
       <use xlink:href="#DejaVuSans-38"/>
       <use xlink:href="#DejaVuSans-30" transform="translate(63.623047 0)"/>
       <use xlink:href="#DejaVuSans-30" transform="translate(127.246094 0)"/>
       <use xlink:href="#DejaVuSans-30" transform="translate(190.869141 0)"/>
      </g>
     </g>
    </g>
    <g id="ytick_6">
     <g id="line2d_21">
      <path d="M 51.69375 104.957906 
L 701.53375 104.957906 
" clip-path="url(#p25db77b24c)" style="fill: none; stroke: #cccccc; stroke-linecap: round"/>
     </g>
     <g id="text_21">
      <!-- 10000 -->
      <g style="fill: #262626" transform="translate(7.2 109.137047) scale(0.11 -0.11)">
       <defs>
        <path id="DejaVuSans-31" d="M 794 531 
L 1825 531 
L 1825 4091 
L 703 3866 
L 703 4441 
L 1819 4666 
L 2450 4666 
L 2450 531 
L 3481 531 
L 3481 0 
L 794 0 
L 794 531 
z
" transform="scale(0.015625)"/>
       </defs>
       <use xlink:href="#DejaVuSans-31"/>
       <use xlink:href="#DejaVuSans-30" transform="translate(63.623047 0)"/>
       <use xlink:href="#DejaVuSans-30" transform="translate(127.246094 0)"/>
       <use xlink:href="#DejaVuSans-30" transform="translate(190.869141 0)"/>
       <use xlink:href="#DejaVuSans-30" transform="translate(254.492188 0)"/>
      </g>
     </g>
    </g>
    <g id="ytick_7">
     <g id="line2d_22">
      <path d="M 51.69375 79.124296 
L 701.53375 79.124296 
" clip-path="url(#p25db77b24c)" style="fill: none; stroke: #cccccc; stroke-linecap: round"/>
     </g>
     <g id="text_22">
      <!-- 12000 -->
      <g style="fill: #262626" transform="translate(7.2 83.303437) scale(0.11 -0.11)">
       <use xlink:href="#DejaVuSans-31"/>
       <use xlink:href="#DejaVuSans-32" transform="translate(63.623047 0)"/>
       <use xlink:href="#DejaVuSans-30" transform="translate(127.246094 0)"/>
       <use xlink:href="#DejaVuSans-30" transform="translate(190.869141 0)"/>
       <use xlink:href="#DejaVuSans-30" transform="translate(254.492188 0)"/>
      </g>
     </g>
    </g>
    <g id="ytick_8">
     <g id="line2d_23">
      <path d="M 51.69375 53.290686 
L 701.53375 53.290686 
" clip-path="url(#p25db77b24c)" style="fill: none; stroke: #cccccc; stroke-linecap: round"/>
     </g>
     <g id="text_23">
      <!-- 14000 -->
      <g style="fill: #262626" transform="translate(7.2 57.469827) scale(0.11 -0.11)">
       <use xlink:href="#DejaVuSans-31"/>
       <use xlink:href="#DejaVuSans-34" transform="translate(63.623047 0)"/>
       <use xlink:href="#DejaVuSans-30" transform="translate(127.246094 0)"/>
       <use xlink:href="#DejaVuSans-30" transform="translate(190.869141 0)"/>
       <use xlink:href="#DejaVuSans-30" transform="translate(254.492188 0)"/>
      </g>
     </g>
    </g>
    <g id="ytick_9">
     <g id="line2d_24">
      <path d="M 51.69375 27.457076 
L 701.53375 27.457076 
" clip-path="url(#p25db77b24c)" style="fill: none; stroke: #cccccc; stroke-linecap: round"/>
     </g>
     <g id="text_24">
      <!-- 16000 -->
      <g style="fill: #262626" transform="translate(7.2 31.636217) scale(0.11 -0.11)">
       <use xlink:href="#DejaVuSans-31"/>
       <use xlink:href="#DejaVuSans-36" transform="translate(63.623047 0)"/>
       <use xlink:href="#DejaVuSans-30" transform="translate(127.246094 0)"/>
       <use xlink:href="#DejaVuSans-30" transform="translate(190.869141 0)"/>
       <use xlink:href="#DejaVuSans-30" transform="translate(254.492188 0)"/>
      </g>
     </g>
    </g>
   </g>
   <g id="patch_3">
    <path d="M 81.231932 234.125956 
L 113.165101 234.125956 
L 113.165101 32.404212 
L 81.231932 32.404212 
z
" clip-path="url(#p25db77b24c)" style="fill: #4c72b0; stroke: #ffffff; stroke-linejoin: miter"/>
   </g>
   <g id="patch_4">
    <path d="M 121.148394 234.125956 
L 153.081563 234.125956 
L 153.081563 173.804477 
L 121.148394 173.804477 
z
" clip-path="url(#p25db77b24c)" style="fill: #4c72b0; stroke: #ffffff; stroke-linejoin: miter"/>
   </g>
   <g id="patch_5">
    <path d="M 161.064856 234.125956 
L 192.998025 234.125956 
L 192.998025 190.996744 
L 161.064856 190.996744 
z
" clip-path="url(#p25db77b24c)" style="fill: #4c72b0; stroke: #ffffff; stroke-linejoin: miter"/>
   </g>
   <g id="patch_6">
    <path d="M 200.981318 234.125956 
L 232.914487 234.125956 
L 232.914487 191.694252 
L 200.981318 191.694252 
z
" clip-path="url(#p25db77b24c)" style="fill: #4c72b0; stroke: #ffffff; stroke-linejoin: miter"/>
   </g>
   <g id="patch_7">
    <path d="M 240.897779 234.125956 
L 272.830949 234.125956 
L 272.830949 197.545564 
L 240.897779 197.545564 
z
" clip-path="url(#p25db77b24c)" style="fill: #4c72b0; stroke: #ffffff; stroke-linejoin: miter"/>
   </g>
   <g id="patch_8">
    <path d="M 280.814241 234.125956 
L 312.747411 234.125956 
L 312.747411 197.752233 
L 280.814241 197.752233 
z
" clip-path="url(#p25db77b24c)" style="fill: #4c72b0; stroke: #ffffff; stroke-linejoin: miter"/>
   </g>
   <g id="patch_9">
    <path d="M 320.730703 234.125956 
L 352.663873 234.125956 
L 352.663873 198.449741 
L 320.730703 198.449741 
z
" clip-path="url(#p25db77b24c)" style="fill: #4c72b0; stroke: #ffffff; stroke-linejoin: miter"/>
   </g>
   <g id="patch_10">
    <path d="M 360.647165 234.125956 
L 392.580335 234.125956 
L 392.580335 200.283927 
L 360.647165 200.283927 
z
" clip-path="url(#p25db77b24c)" style="fill: #4c72b0; stroke: #ffffff; stroke-linejoin: miter"/>
   </g>
   <g id="patch_11">
    <path d="M 400.563627 234.125956 
L 432.496797 234.125956 
L 432.496797 204.688558 
L 400.563627 204.688558 
z
" clip-path="url(#p25db77b24c)" style="fill: #4c72b0; stroke: #ffffff; stroke-linejoin: miter"/>
   </g>
   <g id="patch_12">
    <path d="M 440.480089 234.125956 
L 472.413259 234.125956 
L 472.413259 205.282731 
L 440.480089 205.282731 
z
" clip-path="url(#p25db77b24c)" style="fill: #4c72b0; stroke: #ffffff; stroke-linejoin: miter"/>
   </g>
   <g id="patch_13">
    <path d="M 480.396551 234.125956 
L 512.329721 234.125956 
L 512.329721 207.362336 
L 480.396551 207.362336 
z
" clip-path="url(#p25db77b24c)" style="fill: #4c72b0; stroke: #ffffff; stroke-linejoin: miter"/>
   </g>
   <g id="patch_14">
    <path d="M 520.313013 234.125956 
L 552.246182 234.125956 
L 552.246182 210.268617 
L 520.313013 210.268617 
z
" clip-path="url(#p25db77b24c)" style="fill: #4c72b0; stroke: #ffffff; stroke-linejoin: miter"/>
   </g>
   <g id="patch_15">
    <path d="M 560.229475 234.125956 
L 592.162644 234.125956 
L 592.162644 211.314879 
L 560.229475 211.314879 
z
" clip-path="url(#p25db77b24c)" style="fill: #4c72b0; stroke: #ffffff; stroke-linejoin: miter"/>
   </g>
   <g id="patch_16">
    <path d="M 600.145937 234.125956 
L 632.079106 234.125956 
L 632.079106 212.787394 
L 600.145937 212.787394 
z
" clip-path="url(#p25db77b24c)" style="fill: #4c72b0; stroke: #ffffff; stroke-linejoin: miter"/>
   </g>
   <g id="patch_17">
    <path d="M 640.062399 234.125956 
L 671.995568 234.125956 
L 671.995568 213.265316 
L 640.062399 213.265316 
z
" clip-path="url(#p25db77b24c)" style="fill: #4c72b0; stroke: #ffffff; stroke-linejoin: miter"/>
   </g>
   <g id="patch_18">
    <path d="M 51.69375 234.125956 
L 51.69375 22.318125 
" style="fill: none; stroke: #cccccc; stroke-width: 1.25; stroke-linejoin: miter; stroke-linecap: square"/>
   </g>
   <g id="patch_19">
    <path d="M 701.53375 234.125956 
L 701.53375 22.318125 
" style="fill: none; stroke: #cccccc; stroke-width: 1.25; stroke-linejoin: miter; stroke-linecap: square"/>
   </g>
   <g id="patch_20">
    <path d="M 51.69375 234.125956 
L 701.53375 234.125956 
" style="fill: none; stroke: #cccccc; stroke-width: 1.25; stroke-linejoin: miter; stroke-linecap: square"/>
   </g>
   <g id="patch_21">
    <path d="M 51.69375 22.318125 
L 701.53375 22.318125 
" style="fill: none; stroke: #cccccc; stroke-width: 1.25; stroke-linejoin: miter; stroke-linecap: square"/>
   </g>
   <g id="text_25">
    <!-- Top 15 1-1-grams for hate -->
    <g style="fill: #262626" transform="translate(300.418437 16.318125) scale(0.12 -0.12)">
     <defs>
      <path id="DejaVuSans-54" d="M -19 4666 
L 3928 4666 
L 3928 4134 
L 2272 4134 
L 2272 0 
L 1638 0 
L 1638 4134 
L -19 4134 
L -19 4666 
z
" transform="scale(0.015625)"/>
      <path id="DejaVuSans-6f" d="M 1959 3097 
Q 1497 3097 1228 2736 
Q 959 2375 959 1747 
Q 959 1119 1226 758 
Q 1494 397 1959 397 
Q 2419 397 2687 759 
Q 2956 1122 2956 1747 
Q 2956 2369 2687 2733 
Q 2419 3097 1959 3097 
z
M 1959 3584 
Q 2709 3584 3137 3096 
Q 3566 2609 3566 1747 
Q 3566 888 3137 398 
Q 2709 -91 1959 -91 
Q 1206 -91 779 398 
Q 353 888 353 1747 
Q 353 2609 779 3096 
Q 1206 3584 1959 3584 
z
" transform="scale(0.015625)"/>
      <path id="DejaVuSans-70" d="M 1159 525 
L 1159 -1331 
L 581 -1331 
L 581 3500 
L 1159 3500 
L 1159 2969 
Q 1341 3281 1617 3432 
Q 1894 3584 2278 3584 
Q 2916 3584 3314 3078 
Q 3713 2572 3713 1747 
Q 3713 922 3314 415 
Q 2916 -91 2278 -91 
Q 1894 -91 1617 61 
Q 1341 213 1159 525 
z
M 3116 1747 
Q 3116 2381 2855 2742 
Q 2594 3103 2138 3103 
Q 1681 3103 1420 2742 
Q 1159 2381 1159 1747 
Q 1159 1113 1420 752 
Q 1681 391 2138 391 
Q 2594 391 2855 752 
Q 3116 1113 3116 1747 
z
" transform="scale(0.015625)"/>
      <path id="NotoSansEthiopic-Regular-20" transform="scale(0.015625)"/>
      <path id="DejaVuSans-35" d="M 691 4666 
L 3169 4666 
L 3169 4134 
L 1269 4134 
L 1269 2991 
Q 1406 3038 1543 3061 
Q 1681 3084 1819 3084 
Q 2600 3084 3056 2656 
Q 3513 2228 3513 1497 
Q 3513 744 3044 326 
Q 2575 -91 1722 -91 
Q 1428 -91 1123 -41 
Q 819 9 494 109 
L 494 744 
Q 775 591 1075 516 
Q 1375 441 1709 441 
Q 2250 441 2565 725 
Q 2881 1009 2881 1497 
Q 2881 1984 2565 2268 
Q 2250 2553 1709 2553 
Q 1456 2553 1204 2497 
Q 953 2441 691 2322 
L 691 4666 
z
" transform="scale(0.015625)"/>
      <path id="NotoSansEthiopic-Regular-2d" d="M 256 1466 
L 256 1965 
L 1805 1965 
L 1805 1466 
L 256 1466 
z
" transform="scale(0.015625)"/>
      <path id="DejaVuSans-67" d="M 2906 1791 
Q 2906 2416 2648 2759 
Q 2391 3103 1925 3103 
Q 1463 3103 1205 2759 
Q 947 2416 947 1791 
Q 947 1169 1205 825 
Q 1463 481 1925 481 
Q 2391 481 2648 825 
Q 2906 1169 2906 1791 
z
M 3481 434 
Q 3481 -459 3084 -895 
Q 2688 -1331 1869 -1331 
Q 1566 -1331 1297 -1286 
Q 1028 -1241 775 -1147 
L 775 -588 
Q 1028 -725 1275 -790 
Q 1522 -856 1778 -856 
Q 2344 -856 2625 -561 
Q 2906 -266 2906 331 
L 2906 616 
Q 2728 306 2450 153 
Q 2172 0 1784 0 
Q 1141 0 747 490 
Q 353 981 353 1791 
Q 353 2603 747 3093 
Q 1141 3584 1784 3584 
Q 2172 3584 2450 3431 
Q 2728 3278 2906 2969 
L 2906 3500 
L 3481 3500 
L 3481 434 
z
" transform="scale(0.015625)"/>
      <path id="DejaVuSans-61" d="M 2194 1759 
Q 1497 1759 1228 1600 
Q 959 1441 959 1056 
Q 959 750 1161 570 
Q 1363 391 1709 391 
Q 2188 391 2477 730 
Q 2766 1069 2766 1631 
L 2766 1759 
L 2194 1759 
z
M 3341 1997 
L 3341 0 
L 2766 0 
L 2766 531 
Q 2569 213 2275 61 
Q 1981 -91 1556 -91 
Q 1019 -91 701 211 
Q 384 513 384 1019 
Q 384 1609 779 1909 
Q 1175 2209 1959 2209 
L 2766 2209 
L 2766 2266 
Q 2766 2663 2505 2880 
Q 2244 3097 1772 3097 
Q 1472 3097 1187 3025 
Q 903 2953 641 2809 
L 641 3341 
Q 956 3463 1253 3523 
Q 1550 3584 1831 3584 
Q 2591 3584 2966 3190 
Q 3341 2797 3341 1997 
z
" transform="scale(0.015625)"/>
      <path id="DejaVuSans-6d" d="M 3328 2828 
Q 3544 3216 3844 3400 
Q 4144 3584 4550 3584 
Q 5097 3584 5394 3201 
Q 5691 2819 5691 2113 
L 5691 0 
L 5113 0 
L 5113 2094 
Q 5113 2597 4934 2840 
Q 4756 3084 4391 3084 
Q 3944 3084 3684 2787 
Q 3425 2491 3425 1978 
L 3425 0 
L 2847 0 
L 2847 2094 
Q 2847 2600 2669 2842 
Q 2491 3084 2119 3084 
Q 1678 3084 1418 2786 
Q 1159 2488 1159 1978 
L 1159 0 
L 581 0 
L 581 3500 
L 1159 3500 
L 1159 2956 
Q 1356 3278 1631 3431 
Q 1906 3584 2284 3584 
Q 2666 3584 2933 3390 
Q 3200 3197 3328 2828 
z
" transform="scale(0.015625)"/>
      <path id="DejaVuSans-66" d="M 2375 4863 
L 2375 4384 
L 1825 4384 
Q 1516 4384 1395 4259 
Q 1275 4134 1275 3809 
L 1275 3500 
L 2222 3500 
L 2222 3053 
L 1275 3053 
L 1275 0 
L 697 0 
L 697 3053 
L 147 3053 
L 147 3500 
L 697 3500 
L 697 3744 
Q 697 4328 969 4595 
Q 1241 4863 1831 4863 
L 2375 4863 
z
" transform="scale(0.015625)"/>
      <path id="DejaVuSans-68" d="M 3513 2113 
L 3513 0 
L 2938 0 
L 2938 2094 
Q 2938 2591 2744 2837 
Q 2550 3084 2163 3084 
Q 1697 3084 1428 2787 
Q 1159 2491 1159 1978 
L 1159 0 
L 581 0 
L 581 4863 
L 1159 4863 
L 1159 2956 
Q 1366 3272 1645 3428 
Q 1925 3584 2291 3584 
Q 2894 3584 3203 3211 
Q 3513 2838 3513 2113 
z
" transform="scale(0.015625)"/>
      <path id="DejaVuSans-74" d="M 1172 4494 
L 1172 3500 
L 2356 3500 
L 2356 3053 
L 1172 3053 
L 1172 1153 
Q 1172 725 1289 603 
Q 1406 481 1766 481 
L 2356 481 
L 2356 0 
L 1766 0 
Q 1100 0 847 248 
Q 594 497 594 1153 
L 594 3053 
L 172 3053 
L 172 3500 
L 594 3500 
L 594 4494 
L 1172 4494 
z
" transform="scale(0.015625)"/>
     </defs>
     <use xlink:href="#DejaVuSans-54"/>
     <use xlink:href="#DejaVuSans-6f" transform="translate(44.083984 0)"/>
     <use xlink:href="#DejaVuSans-70" transform="translate(105.265625 0)"/>
     <use xlink:href="#NotoSansEthiopic-Regular-20" transform="translate(168.742188 0)"/>
     <use xlink:href="#DejaVuSans-31" transform="translate(194.742172 0)"/>
     <use xlink:href="#DejaVuSans-35" transform="translate(258.365219 0)"/>
     <use xlink:href="#NotoSansEthiopic-Regular-20" transform="translate(321.988266 0)"/>
     <use xlink:href="#DejaVuSans-31" transform="translate(347.988251 0)"/>
     <use xlink:href="#NotoSansEthiopic-Regular-2d" transform="translate(411.611298 0)"/>
     <use xlink:href="#DejaVuSans-31" transform="translate(443.811295 0)"/>
     <use xlink:href="#NotoSansEthiopic-Regular-2d" transform="translate(507.434341 0)"/>
     <use xlink:href="#DejaVuSans-67" transform="translate(539.634338 0)"/>
     <use xlink:href="#DejaVuSans-72" transform="translate(603.110901 0)"/>
     <use xlink:href="#DejaVuSans-61" transform="translate(644.224182 0)"/>
     <use xlink:href="#DejaVuSans-6d" transform="translate(705.503479 0)"/>
     <use xlink:href="#DejaVuSans-73" transform="translate(802.915588 0)"/>
     <use xlink:href="#NotoSansEthiopic-Regular-20" transform="translate(855.015198 0)"/>
     <use xlink:href="#DejaVuSans-66" transform="translate(881.015182 0)"/>
     <use xlink:href="#DejaVuSans-6f" transform="translate(916.220261 0)"/>
     <use xlink:href="#DejaVuSans-72" transform="translate(977.401901 0)"/>
     <use xlink:href="#NotoSansEthiopic-Regular-20" transform="translate(1018.515182 0)"/>
     <use xlink:href="#DejaVuSans-68" transform="translate(1044.515167 0)"/>
     <use xlink:href="#DejaVuSans-61" transform="translate(1107.894073 0)"/>
     <use xlink:href="#DejaVuSans-74" transform="translate(1169.17337 0)"/>
     <use xlink:href="#DejaVuSans-65" transform="translate(1208.382355 0)"/>
    </g>
   </g>
  </g>
 </g>
 <defs>
  <clipPath id="p25db77b24c">
   <rect x="51.69375" y="22.318125" width="649.84" height="211.807831"/>
  </clipPath>
 </defs>
</svg>
